<svg width="80" height="80" viewBox="0 0 80 80" fill="none" xmlns="http://www.w3.org/2000/svg">
<path d="M57.6669 58.5707L58.3664 59.2853L58.3664 59.2853L57.6669 58.5707ZM45.8005 68.7853C45.4058 69.1716 45.399 69.8048 45.7853 70.1995C46.1716 70.5942 46.8048 70.601 47.1995 70.2147L45.8005 68.7853ZM40 59C40.5523 59 41 58.5523 41 58C41 57.4477 40.5523 57 40 57V59ZM33.4865 43.8361C33.3959 43.2912 32.8809 42.923 32.3361 43.0135C31.7912 43.1041 31.423 43.6191 31.5135 44.1639L33.4865 43.8361ZM48.4865 44.1639C48.577 43.6191 48.2088 43.1041 47.6639 43.0135C47.1191 42.923 46.6041 43.2912 46.5135 43.8361L48.4865 44.1639ZM10 17H71V15H10V17ZM72 18V56H74V18H72ZM9 56V18H7V56H9ZM71 57H59.0659V59H71V57ZM56.9675 57.856L45.8005 68.7853L47.1995 70.2147L58.3664 59.2853L56.9675 57.856ZM40 57H10V59H40V57ZM7 56C7 57.6569 8.34315 59 10 59V57C9.44772 57 9 56.5523 9 56H7ZM72 56C72 56.5523 71.5523 57 71 57V59C72.6569 59 74 57.6569 74 56H72ZM71 17C71.5523 17 72 17.4477 72 18H74C74 16.3431 72.6569 15 71 15V17ZM59.0659 57C58.2814 57 57.5281 57.3073 56.9675 57.856L58.3664 59.2853C58.5533 59.1024 58.8044 59 59.0659 59V57ZM10 15C8.34315 15 7 16.3431 7 18H9C9 17.4477 9.44772 17 10 17V15ZM35 33C35 35.2091 33.2091 37 31 37V39C34.3137 39 37 36.3137 37 33H35ZM31 37C28.7909 37 27 35.2091 27 33H25C25 36.3137 27.6863 39 31 39V37ZM27 33C27 30.7909 28.7909 29 31 29V27C27.6863 27 25 29.6863 25 33H27ZM31 29C33.2091 29 35 30.7909 35 33H37C37 29.6863 34.3137 27 31 27V29ZM53 33C53 35.2091 51.2091 37 49 37V39C52.3137 39 55 36.3137 55 33H53ZM49 37C46.7909 37 45 35.2091 45 33H43C43 36.3137 45.6863 39 49 39V37ZM45 33C45 30.7909 46.7909 29 49 29V27C45.6863 27 43 29.6863 43 33H45ZM49 29C51.2091 29 53 30.7909 53 33H55C55 29.6863 52.3137 27 49 27V29ZM32.5 44C31.5135 44.1639 31.5137 44.1648 31.5138 44.1656C31.5139 44.1659 31.514 44.1667 31.5141 44.1673C31.5143 44.1685 31.5145 44.1698 31.5147 44.1711C31.5152 44.1738 31.5157 44.1767 31.5163 44.1798C31.5174 44.1861 31.5188 44.1934 31.5204 44.2017C31.5236 44.2182 31.5278 44.2387 31.5331 44.2627C31.5439 44.3108 31.5593 44.3736 31.581 44.4489C31.6244 44.5993 31.693 44.8008 31.7991 45.0361C32.0117 45.5075 32.3754 46.1151 32.9869 46.7143C34.2302 47.9325 36.3755 49 40 49V47C36.7893 47 35.1846 46.0675 34.3867 45.2857C33.9776 44.8849 33.7479 44.4925 33.6223 44.2139C33.5592 44.0742 33.5225 43.9632 33.5028 43.8949C33.493 43.8608 33.4875 43.8376 33.4851 43.8271C33.484 43.8219 33.4836 43.8199 33.4839 43.8213C33.484 43.822 33.4843 43.8235 33.4847 43.826C33.485 43.8272 33.4852 43.8287 33.4855 43.8303C33.4856 43.8312 33.4858 43.8321 33.486 43.833C33.486 43.8335 33.4862 43.8343 33.4862 43.8345C33.4863 43.8353 33.4865 43.8361 32.5 44ZM40 49C43.6245 49 45.7698 47.9325 47.0131 46.7143C47.6246 46.1151 47.9883 45.5075 48.2009 45.0361C48.307 44.8008 48.3756 44.5993 48.419 44.4489C48.4407 44.3736 48.4561 44.3108 48.4669 44.2627C48.4722 44.2387 48.4764 44.2182 48.4796 44.2017C48.4812 44.1934 48.4826 44.1861 48.4837 44.1798C48.4843 44.1767 48.4848 44.1738 48.4853 44.1711C48.4855 44.1698 48.4857 44.1685 48.4859 44.1673C48.486 44.1667 48.4861 44.1659 48.4862 44.1656C48.4863 44.1648 48.4865 44.1639 47.5 44C46.5135 43.8361 46.5137 43.8353 46.5138 43.8345C46.5138 43.8343 46.514 43.8335 46.514 43.833C46.5142 43.8321 46.5144 43.8312 46.5145 43.8303C46.5148 43.8287 46.515 43.8272 46.5153 43.826C46.5157 43.8235 46.516 43.822 46.5161 43.8213C46.5164 43.8199 46.516 43.8219 46.5149 43.8271C46.5125 43.8376 46.507 43.8608 46.4972 43.8949C46.4775 43.9632 46.4408 44.0742 46.3777 44.2139C46.2521 44.4925 46.0224 44.8849 45.6133 45.2857C44.8154 46.0675 43.2107 47 40 47V49Z" fill="#E6E8EF"/>
</svg>
