<svg width="80" height="80" viewBox="0 0 80 80" fill="none" xmlns="http://www.w3.org/2000/svg">
<path d="M35.4999 49.3333L34.636 48.8297C34.8151 48.5224 35.1441 48.3333 35.4999 48.3333V49.3333ZM43.4999 49.3333V48.3333C43.8541 48.3333 44.1819 48.5207 44.3616 48.8259L43.4999 49.3333ZM11.6152 34L12.5874 34.2341L11.6152 34ZM11.766 47L12.7367 46.7595L11.766 47ZM35.4999 48.3333H43.4999V50.3333H35.4999V48.3333ZM21.8499 55C27.0963 55 32.2969 52.8425 34.636 48.8297L36.3638 49.8369C33.5401 54.6812 27.5151 57 21.8499 57V55ZM44.3616 48.8259C45.5091 50.7746 47.6033 52.3256 50.146 53.3934C52.6784 54.457 55.5615 55 58.1499 55V57C55.3062 57 52.1588 56.408 49.3715 55.2374C46.5945 54.0711 44.0797 52.2888 42.6382 49.8408L44.3616 48.8259ZM21.8499 25H39.9999V27H21.8499V25ZM39.9999 25H59.7999V27H39.9999V25ZM21.8499 27C19.0134 27 16.9963 27.7225 15.5593 28.9231C14.1147 30.1303 13.1463 31.9126 12.5874 34.2341L10.643 33.7659C11.2681 31.1695 12.4059 28.9518 14.2769 27.3884C16.1557 25.8186 18.664 25 21.8499 25V27ZM12.5874 34.2341C12.1829 35.9146 11.9999 37.8512 11.9999 40H9.9999C9.9999 37.7468 10.1908 35.6441 10.643 33.7659L12.5874 34.2341ZM11.9999 40C11.9999 42.3855 12.2253 44.6959 12.7367 46.7595L10.7954 47.2405C10.2355 44.9811 9.9999 42.5025 9.9999 40H11.9999ZM12.7367 46.7595C13.3493 49.2319 14.3571 51.2904 15.8194 52.7225C17.2587 54.132 19.2032 55 21.8499 55V57C18.7147 57 16.2572 55.9506 14.42 54.1514C12.6059 52.3748 11.4626 49.9334 10.7954 47.2405L12.7367 46.7595ZM11.2022 34.9107C10.5582 34.6187 10.1317 34.6443 9.84201 34.7548C9.53254 34.8727 9.20689 35.1534 8.90636 35.6819C8.29054 36.7647 7.97814 38.5508 8.04694 40.4641C8.11551 42.371 8.55484 44.1804 9.23311 45.2914C9.56962 45.8427 9.91016 46.1336 10.2042 46.2512C10.4579 46.3528 10.799 46.3759 11.3045 46.1129L12.2276 47.8871C11.2915 48.3741 10.34 48.4597 9.46122 48.1081C8.62271 47.7726 7.9908 47.0948 7.52606 46.3336C6.60185 44.8196 6.1235 42.629 6.04823 40.5359C5.97319 38.4492 6.29079 36.2353 7.16785 34.6931C7.61375 33.9091 8.25025 33.2211 9.12978 32.8859C10.0291 32.5432 11.0184 32.6313 12.0282 33.0893L11.2022 34.9107ZM69.4999 40C69.4999 37.8478 69.327 35.9087 68.9366 34.226L70.8848 33.774C71.3201 35.65 71.4999 37.7503 71.4999 40H69.4999ZM68.9366 34.226C68.3971 31.9007 67.4566 30.1215 66.0388 28.9182C64.6298 27.7224 62.6366 27 59.7999 27V25C62.9857 25 65.4774 25.8186 67.3329 27.3933C69.1796 28.9606 70.2833 31.1813 70.8848 33.774L68.9366 34.226ZM58.1499 55C63.3744 55 66.8417 51.5756 68.4704 46.6841L70.3679 47.3159C68.557 52.7549 64.4891 57 58.1499 57V55ZM68.4704 46.6841C69.1526 44.635 69.4999 42.3483 69.4999 40H71.4999C71.4999 42.5397 71.125 45.042 70.3679 47.3159L68.4704 46.6841ZM69.4193 33.1291C70.4621 32.5407 71.5014 32.3342 72.4713 32.6132C73.4312 32.8893 74.127 33.5848 74.6093 34.3945C75.5536 35.98 75.8872 38.3332 75.7903 40.5438C75.693 42.7608 75.1514 45.0951 74.0976 46.6538C73.5641 47.443 72.8405 48.1175 71.8949 48.3874C70.9225 48.6649 69.9001 48.4625 68.8997 47.8545L69.9386 46.1455C70.5835 46.5375 71.0319 46.5538 71.346 46.4642C71.6871 46.3668 72.0658 46.0883 72.4407 45.5337C73.2038 44.4049 73.703 42.4892 73.7922 40.4562C73.8817 38.4168 73.5473 36.52 72.891 35.418C72.5729 34.8839 72.2352 34.6264 71.9185 34.5353C71.6119 34.4471 71.1317 34.4593 70.4021 34.8709L69.4193 33.1291Z" fill="#E6E8EF"/>
<path d="M25 23C31.25 16.3334 48.75 16.3333 55 23" stroke="#E6E8EF" stroke-width="2" stroke-linecap="round"/>
<path d="M65.3137 18.8787C65.7042 19.2692 66.3374 19.2692 66.7279 18.8787C67.1184 18.4882 67.1184 17.855 66.7279 17.4645L65.3137 18.8787ZM64.7231 17.3045L65.1058 16.3806L64.7231 17.3045ZM61.6617 17.3045L62.0443 18.2284L61.6617 17.3045ZM59.6569 17.4645C59.2663 17.855 59.2663 18.4882 59.6569 18.8787C60.0474 19.2692 60.6805 19.2692 61.0711 18.8787L59.6569 17.4645ZM68.1421 16.0503C68.5327 16.4408 69.1658 16.4408 69.5563 16.0503C69.9469 15.6597 69.9469 15.0266 69.5563 14.636L68.1421 16.0503ZM66.2539 13.609L66.6365 12.6851L66.2539 13.609ZM60.1309 13.609L60.5136 14.5328L60.1309 13.609ZM56.8284 14.636C56.4379 15.0266 56.4379 15.6597 56.8284 16.0503C57.2189 16.4408 57.8521 16.4408 58.2426 16.0503L56.8284 14.636ZM71.6777 13.5147C72.0682 13.9052 72.7014 13.9052 73.0919 13.5147C73.4824 13.1242 73.4824 12.491 73.0919 12.1005L71.6777 13.5147ZM68.1673 9.98957L68.55 9.06569V9.06569L68.1673 9.98957ZM58.2175 9.98957L58.6002 10.9134L58.2175 9.98957ZM53.2929 12.1005C52.9024 12.491 52.9024 13.1242 53.2929 13.5147C53.6834 13.9052 54.3166 13.9052 54.7071 13.5147L53.2929 12.1005ZM66.7279 17.4645C66.2636 17.0002 65.7124 16.6319 65.1058 16.3806L64.3404 18.2284C64.7044 18.3791 65.0351 18.6001 65.3137 18.8787L66.7279 17.4645ZM65.1058 16.3806C64.4992 16.1293 63.849 16 63.1924 16V18C63.5864 18 63.9765 18.0776 64.3404 18.2284L65.1058 16.3806ZM63.1924 16C62.5358 16 61.8856 16.1293 61.279 16.3806L62.0443 18.2284C62.4083 18.0776 62.7984 18 63.1924 18V16ZM61.279 16.3806C60.6723 16.6319 60.1211 17.0002 59.6569 17.4645L61.0711 18.8787C61.3496 18.6001 61.6804 18.3791 62.0443 18.2284L61.279 16.3806ZM69.5563 14.636C68.7206 13.8003 67.7285 13.1374 66.6365 12.6851L65.8712 14.5328C66.7204 14.8846 67.4921 15.4002 68.1421 16.0503L69.5563 14.636ZM66.6365 12.6851C65.5446 12.2328 64.3743 12 63.1924 12V14C64.1116 14 65.0219 14.1811 65.8712 14.5328L66.6365 12.6851ZM63.1924 12C62.0105 12 60.8402 12.2328 59.7482 12.6851L60.5136 14.5328C61.3629 14.1811 62.2731 14 63.1924 14V12ZM59.7482 12.6851C58.6563 13.1374 57.6642 13.8003 56.8284 14.636L58.2426 16.0503C58.8926 15.4002 59.6643 14.8846 60.5136 14.5328L59.7482 12.6851ZM73.0919 12.1005C71.7919 10.8005 70.2485 9.76925 68.55 9.06569L67.7846 10.9134C69.2405 11.5165 70.5634 12.4004 71.6777 13.5147L73.0919 12.1005ZM68.55 9.06569C66.8514 8.36212 65.0309 8 63.1924 8V10C64.7683 10 66.3287 10.3104 67.7846 10.9134L68.55 9.06569ZM63.1924 8C61.3539 8 59.5334 8.36212 57.8348 9.06569L58.6002 10.9134C60.0561 10.3104 61.6165 10 63.1924 10V8ZM57.8348 9.06569C56.1363 9.76925 54.5929 10.8005 53.2929 12.1005L54.7071 13.5147C55.8214 12.4004 57.1443 11.5165 58.6002 10.9134L57.8348 9.06569Z" fill="#E6E8EF"/>
<path d="M33.572 44.6C33.38 44.6 33.23 44.552 33.122 44.456C33.014 44.36 32.936 44.24 32.888 44.096L29.036 32.54C29.012 32.48 29 32.426 29 32.378C29 32.27 29.036 32.18 29.108 32.108C29.18 32.036 29.27 32 29.378 32H30.962C31.13 32 31.256 32.048 31.34 32.144C31.436 32.228 31.496 32.312 31.52 32.396L34.562 41.666L37.586 32.396C37.622 32.312 37.682 32.228 37.766 32.144C37.862 32.048 37.994 32 38.162 32H39.746C39.842 32 39.926 32.036 39.998 32.108C40.082 32.18 40.124 32.27 40.124 32.378C40.124 32.426 40.112 32.48 40.088 32.54L36.236 44.096C36.188 44.24 36.11 44.36 36.002 44.456C35.894 44.552 35.744 44.6 35.552 44.6H33.572Z" fill="#E6E8EF"/>
<path d="M41.8309 44.6C41.7109 44.6 41.6089 44.558 41.5249 44.474C41.4409 44.39 41.3989 44.288 41.3989 44.168V32.45C41.3989 32.318 41.4409 32.21 41.5249 32.126C41.6089 32.042 41.7109 32 41.8309 32H46.4929C47.9449 32 49.0909 32.336 49.9309 33.008C50.7709 33.68 51.1909 34.658 51.1909 35.942C51.1909 36.83 50.9689 37.568 50.5249 38.156C50.0929 38.744 49.5109 39.17 48.7789 39.434L51.4069 44.024C51.4429 44.096 51.4609 44.162 51.4609 44.222C51.4609 44.33 51.4189 44.42 51.3349 44.492C51.2629 44.564 51.1789 44.6 51.0829 44.6H49.4449C49.2409 44.6 49.0849 44.546 48.9769 44.438C48.8689 44.33 48.7849 44.222 48.7249 44.114L46.4029 39.848H43.9009V44.168C43.9009 44.288 43.8589 44.39 43.7749 44.474C43.7029 44.558 43.6009 44.6 43.4689 44.6H41.8309ZM43.9009 37.814H46.4389C47.1709 37.814 47.7169 37.652 48.0769 37.328C48.4369 36.992 48.6169 36.524 48.6169 35.924C48.6169 35.324 48.4369 34.856 48.0769 34.52C47.7289 34.172 47.1829 33.998 46.4389 33.998H43.9009V37.814Z" fill="#E6E8EF"/>
</svg>
