<svg width="80" height="80" viewBox="0 0 80 80" fill="none" xmlns="http://www.w3.org/2000/svg">
<path d="M20 10V9C19.4477 9 19 9.44772 19 10H20ZM60 10H61C61 9.44772 60.5523 9 60 9V10ZM60 70V71C60.5523 71 61 70.5523 61 70H60ZM20 70H19C19 70.5523 19.4477 71 20 71V70ZM26 30V29C25.4477 29 25 29.4477 25 30H26ZM54 30H55C55 29.4477 54.5523 29 54 29V30ZM54 44V45C54.5523 45 55 44.5523 55 44H54ZM26 44H25C25 44.5523 25.4477 45 26 45V44ZM26 50V49C25.4477 49 25 49.4477 25 50H26ZM54 50H55C55 49.4477 54.5523 49 54 49V50ZM54 64V65C54.5523 65 55 64.5523 55 64H54ZM26 64H25C25 64.5523 25.4477 65 26 65V64ZM20 11H60V9H20V11ZM59 10V70H61V10H59ZM60 69H20V71H60V69ZM21 70V10H19V70H21ZM53 20C53 21.6569 51.6569 23 50 23V25C52.7614 25 55 22.7614 55 20H53ZM50 23C48.3431 23 47 21.6569 47 20H45C45 22.7614 47.2386 25 50 25V23ZM47 20C47 18.3431 48.3431 17 50 17V15C47.2386 15 45 17.2386 45 20H47ZM50 17C51.6569 17 53 18.3431 53 20H55C55 17.2386 52.7614 15 50 15V17ZM49 36C49 36.5523 48.5523 37 48 37V39C49.6569 39 51 37.6569 51 36H49ZM48 37C47.4477 37 47 36.5523 47 36H45C45 37.6569 46.3431 39 48 39V37ZM47 36C47 35.4477 47.4477 35 48 35V33C46.3431 33 45 34.3431 45 36H47ZM48 35C48.5523 35 49 35.4477 49 36H51C51 34.3431 49.6569 33 48 33V35ZM26 31H54V29H26V31ZM53 30V44H55V30H53ZM54 43H26V45H54V43ZM27 44V30H25V44H27ZM49 56C49 56.5523 48.5523 57 48 57V59C49.6569 59 51 57.6569 51 56H49ZM48 57C47.4477 57 47 56.5523 47 56H45C45 57.6569 46.3431 59 48 59V57ZM47 56C47 55.4477 47.4477 55 48 55V53C46.3431 53 45 54.3431 45 56H47ZM48 55C48.5523 55 49 55.4477 49 56H51C51 54.3431 49.6569 53 48 53V55ZM26 51H54V49H26V51ZM53 50V64H55V50H53ZM54 63H26V65H54V63ZM27 64V50H25V64H27Z" fill="#E6E8EF"/>
</svg>
