<svg width="80" height="80" viewBox="0 0 80 80" fill="none" xmlns="http://www.w3.org/2000/svg">
<mask id="path-1-inside-1_401_4757" fill="white">
<path d="M60 70H20V10H40L60 31.198V70Z"/>
</mask>
<path d="M40 31.198H39C39 31.7502 39.4477 32.198 40 32.198V31.198ZM39 10V31.198H41V10H39ZM40 32.198H60V30.198H40V32.198ZM60 70V72C61.1046 72 62 71.1046 62 70H60ZM20 70H18C18 71.1046 18.8954 72 20 72V70ZM20 10V8C18.8954 8 18 8.89543 18 10H20ZM40 10L41.4547 8.62749C41.0769 8.227 40.5506 8 40 8V10ZM60 31.198H62C62 30.6876 61.8049 30.1966 61.4547 29.8254L60 31.198ZM60 68H20V72H60V68ZM22 70V10H18V70H22ZM20 12H40V8H20V12ZM58 31.198V70H62V31.198H58ZM61.4547 29.8254L41.4547 8.62749L38.5453 11.3725L58.5453 32.5705L61.4547 29.8254Z" fill="#E6E8EF" mask="url(#path-1-inside-1_401_4757)"/>
<path d="M31 41C30.4477 41 30 41.4477 30 42C30 42.5523 30.4477 43 31 43V41ZM53 43C53.5523 43 54 42.5523 54 42C54 41.4477 53.5523 41 53 41V43ZM31 49C30.4477 49 30 49.4477 30 50C30 50.5523 30.4477 51 31 51V49ZM53 51C53.5523 51 54 50.5523 54 50C54 49.4477 53.5523 49 53 49V51ZM31 57C30.4477 57 30 57.4477 30 58C30 58.5523 30.4477 59 31 59V57ZM53 59C53.5523 59 54 58.5523 54 58C54 57.4477 53.5523 57 53 57V59ZM31 43H53V41H31V43ZM31 51H53V49H31V51ZM31 59H53V57H31V59Z" fill="#E6E8EF"/>
<circle cx="27" cy="42" r="1" fill="#E6E8EF"/>
<circle cx="27" cy="50" r="1" fill="#E6E8EF"/>
<circle cx="27" cy="58" r="1" fill="#E6E8EF"/>
</svg>
