<svg width="32" height="32" viewBox="0 0 32 32" fill="none" xmlns="http://www.w3.org/2000/svg">
<path fill-rule="evenodd" clip-rule="evenodd" d="M16 -0.000488281C7.16703 -0.000488281 0 7.16654 0 15.9995C0 24.8325 7.16703 31.9995 16 31.9995C24.8156 31.9995 32 24.8325 32 15.9995C32 7.16654 24.8156 -0.000488281 16 -0.000488281ZM26.5683 7.37478C28.4772 9.70016 29.6226 12.6676 29.6573 15.878C29.2061 15.7913 24.6941 14.8715 20.1475 15.4442C20.0434 15.2186 19.9566 14.9756 19.8525 14.7327C19.5748 14.0733 19.2625 13.3965 18.9501 12.7544C23.9826 10.7067 26.2733 7.75656 26.5683 7.37478ZM16 2.3596C19.4707 2.3596 22.6464 3.66112 25.0586 5.79561C24.8156 6.14268 22.7505 8.9019 17.8915 10.724C15.6529 6.61122 13.1714 3.24463 12.7896 2.72402C13.8134 2.48107 14.8894 2.3596 16 2.3596ZM10.1866 3.64376C10.551 4.12966 12.9805 7.51361 15.2538 11.5396C8.86768 13.2403 3.22777 13.2056 2.62039 13.2056C3.50542 8.97131 6.36876 5.44853 10.1866 3.64376ZM2.32538 16.0169C2.32538 15.878 2.32538 15.7392 2.32538 15.6004C2.9154 15.6177 9.54447 15.7045 16.3644 13.6568C16.7636 14.4203 17.128 15.2012 17.4751 15.9821C17.3015 16.0342 17.1106 16.0863 16.9371 16.1383C9.89154 18.4116 6.14317 24.6242 5.8308 25.1448C3.6616 22.7327 2.32538 19.5223 2.32538 16.0169ZM16 29.6741C12.8416 29.6741 9.92625 28.5982 7.61822 26.7934C7.86117 26.2902 10.6377 20.9453 18.3427 18.2555C18.3774 18.2381 18.3948 18.2381 18.4295 18.2208C20.3557 23.2012 21.1367 27.3834 21.3449 28.5808C19.6963 29.2923 17.8915 29.6741 16 29.6741ZM23.6182 27.3314C23.4794 26.4984 22.7505 22.5071 20.9631 17.596C25.2495 16.9192 28.9978 18.0299 29.4664 18.1861C28.8764 21.9865 26.6898 25.2663 23.6182 27.3314Z" fill="white"/>
</svg>
