<svg width="32" height="32" viewBox="0 0 32 32" fill="none" xmlns="http://www.w3.org/2000/svg">
<g clip-path="url(#clip0_117_5587)">
<path d="M32 15.9995C32 7.16295 24.8366 -0.000488281 16 -0.000488281C7.16344 -0.000488281 0 7.16295 0 15.9995C0 23.9855 5.85094 30.6048 13.5 31.8051V20.6245H9.4375V15.9995H13.5V12.4745C13.5 8.46451 15.8888 6.24951 19.5434 6.24951C21.2934 6.24951 23.125 6.56201 23.125 6.56201V10.4995H21.1075C19.12 10.4995 18.5 11.7329 18.5 12.9995V15.9995H22.9375L22.2281 20.6245H18.5V31.8051C26.1491 30.6048 32 23.9855 32 15.9995Z" fill="white"/>
</g>
<defs>
<clipPath id="clip0_117_5587">
<rect width="32" height="32" fill="white" transform="translate(0 -0.000488281)"/>
</clipPath>
</defs>
</svg>
