<svg width="80" height="80" viewBox="0 0 80 80" fill="none" xmlns="http://www.w3.org/2000/svg">
<path d="M27.3236 71H26.3236V72H27.3236V71ZM53.9546 71V72H54.8685L54.9506 71.0897L53.9546 71ZM72.8766 66.5556V67.5556H73.7906L73.8726 66.6453L72.8766 66.5556ZM7 66.5556H6V67.5556H7V66.5556ZM54.0419 66.5556L53.043 66.6017L54.0419 66.5556ZM32.6109 55.68L32.8936 56.6392L32.6109 55.68ZM27.3236 72H53.9546V70H27.3236V72ZM73.8726 66.6453C74.1122 63.9862 74.0823 59.9697 73.1771 56.5756C72.7247 54.8795 72.033 53.2583 70.9765 52.0448C69.8935 50.8007 68.4347 50 66.5693 50V52C67.7875 52 68.7173 52.4956 69.468 53.358C70.2454 54.2509 70.8326 55.5464 71.2446 57.091C72.0681 60.1784 72.1083 63.9397 71.8806 66.4658L73.8726 66.6453ZM66.5693 50H53.2538V52H66.5693V50ZM27.3236 50H14.0081V52H27.3236V50ZM14.0081 50C11.9791 50 10.4031 50.7536 9.23015 51.9933C8.0867 53.2019 7.37131 54.8225 6.91104 56.5154C5.99379 59.8893 6 63.9164 6 66.5556H8C8 63.8614 8.00621 60.1107 8.84099 57.0401C9.25675 55.5109 9.85538 54.2426 10.683 53.3678C11.4811 52.5242 12.5331 52 14.0081 52V50ZM54.0419 67.5556H72.8766V65.5556H54.0419V67.5556ZM54.9506 71.0897C55.0673 69.7939 55.1187 68.1939 55.0409 66.5094L53.043 66.6017C53.1165 68.1928 53.0675 69.7019 52.9586 70.9103L54.9506 71.0897ZM55.0409 66.5094C54.9196 63.8852 54.4809 60.958 53.4178 58.6521C52.3454 56.3261 50.5288 54.4444 47.6473 54.4444V56.4444C49.4437 56.4444 50.7055 57.546 51.6016 59.4895C52.5069 61.4531 52.9266 64.0814 53.043 66.6017L55.0409 66.5094ZM53.2538 50C51.5232 50 50.1108 50.5484 48.9958 51.4988C47.9 52.4329 47.146 53.7076 46.6187 55.0875L48.4869 55.8014C48.9403 54.615 49.5347 53.6675 50.2932 53.0209C51.0326 52.3907 51.9804 52 53.2538 52V50ZM47.6473 54.4444H47.5528V56.4444H47.6473V54.4444ZM47.5528 54.4444H34.3318V56.4444H47.5528V54.4444ZM33.5542 55.348C32.5599 52.5236 30.6753 50 27.3236 50V52C29.387 52 30.7742 53.4739 31.6677 56.0121L33.5542 55.348ZM34.3318 54.4444C33.6155 54.4444 32.9478 54.5382 32.3283 54.7208L32.8936 56.6392C33.3154 56.5149 33.7915 56.4444 34.3318 56.4444V54.4444ZM32.3283 54.7208C29.962 55.418 28.555 57.3175 27.7194 59.4727C26.886 61.6225 26.5562 64.1777 26.4204 66.4971L28.417 66.614C28.5489 64.3608 28.8641 62.0531 29.5842 60.1957C30.3022 58.3438 31.3576 57.0918 32.8936 56.6392L32.3283 54.7208ZM26.4204 66.4971C26.3234 68.1532 26.3236 69.7307 26.3236 71H28.3236C28.3236 69.7258 28.3239 68.2037 28.417 66.614L26.4204 66.4971ZM7 67.5556H27.4187V65.5556H7V67.5556Z" fill="#E6E8EF"/>
<mask id="path-2-inside-1_401_4768" fill="white">
<path d="M27.9756 39.4C27.9756 44.0392 24.1755 47.8 19.4878 47.8C14.8001 47.8 11 44.0392 11 39.4C11 34.7608 14.8001 31 19.4878 31C24.1755 31 27.9756 34.7608 27.9756 39.4Z"/>
<path d="M49.1951 43.6C49.1951 48.2392 45.395 52 40.7073 52C36.0196 52 32.2195 48.2392 32.2195 43.6C32.2195 38.9608 36.0196 35.2 40.7073 35.2C45.395 35.2 49.1951 38.9608 49.1951 43.6Z"/>
<path d="M69 39.4C69 44.0392 65.1999 47.8 60.5122 47.8C55.8245 47.8 52.0244 44.0392 52.0244 39.4C52.0244 34.7608 55.8245 31 60.5122 31C65.1999 31 69 34.7608 69 39.4Z"/>
</mask>
<path d="M25.9756 39.4C25.9756 42.9151 23.0906 45.8 19.4878 45.8V49.8C25.2604 49.8 29.9756 45.1633 29.9756 39.4H25.9756ZM19.4878 45.8C15.885 45.8 13 42.9151 13 39.4H9C9 45.1633 13.7152 49.8 19.4878 49.8V45.8ZM13 39.4C13 35.8849 15.885 33 19.4878 33V29C13.7152 29 9 33.6367 9 39.4H13ZM19.4878 33C23.0906 33 25.9756 35.8849 25.9756 39.4H29.9756C29.9756 33.6367 25.2604 29 19.4878 29V33ZM47.1951 43.6C47.1951 47.1151 44.3101 50 40.7073 50V54C46.4799 54 51.1951 49.3633 51.1951 43.6H47.1951ZM40.7073 50C37.1045 50 34.2195 47.1151 34.2195 43.6H30.2195C30.2195 49.3633 34.9347 54 40.7073 54V50ZM34.2195 43.6C34.2195 40.0849 37.1045 37.2 40.7073 37.2V33.2C34.9347 33.2 30.2195 37.8367 30.2195 43.6H34.2195ZM40.7073 37.2C44.3101 37.2 47.1951 40.0849 47.1951 43.6H51.1951C51.1951 37.8367 46.4799 33.2 40.7073 33.2V37.2ZM67 39.4C67 42.9151 64.115 45.8 60.5122 45.8V49.8C66.2848 49.8 71 45.1633 71 39.4H67ZM60.5122 45.8C56.9094 45.8 54.0244 42.9151 54.0244 39.4H50.0244C50.0244 45.1633 54.7396 49.8 60.5122 49.8V45.8ZM54.0244 39.4C54.0244 35.8849 56.9094 33 60.5122 33V29C54.7396 29 50.0244 33.6367 50.0244 39.4H54.0244ZM60.5122 33C64.115 33 67 35.8849 67 39.4H71C71 33.6367 66.2848 29 60.5122 29V33Z" fill="#E6E8EF" mask="url(#path-2-inside-1_401_4768)"/>
<path d="M40 6L42.9187 14.9828H52.3637L44.7225 20.5344L47.6412 29.5172L40 23.9656L32.3588 29.5172L35.2775 20.5344L27.6363 14.9828H37.0813L40 6Z" stroke="#E6E8EF" stroke-width="2" stroke-linejoin="round"/>
</svg>
