<svg width="80" height="80" viewBox="0 0 80 80" fill="none" xmlns="http://www.w3.org/2000/svg">
<path d="M20 10V9C19.4477 9 19 9.44772 19 10H20ZM60 10H61C61 9.44772 60.5523 9 60 9V10ZM60 70V71C60.5523 71 61 70.5523 61 70H60ZM20 70H19C19 70.5523 19.4477 71 20 71V70ZM20 11H60V9H20V11ZM60 69H20V71H60V69ZM21 70V22.5H19V70H21ZM21 22.5V10H19V22.5H21ZM59 10V22.5H61V10H59ZM59 22.5V70H61V22.5H59ZM20 23.5H60V21.5H20V23.5Z" fill="#E6E8EF"/>
<path d="M37.7149 37.6667L36.8476 38.1645C37.0259 38.4751 37.3567 38.6667 37.7149 38.6667V37.6667ZM42.2851 37.6667V38.6667C42.6417 38.6667 42.9713 38.4768 43.1502 38.1683L42.2851 37.6667ZM41.3 53L41.7054 52.0859L41.3 53ZM43.55 59C43.55 59.5523 43.9977 60 44.55 60C45.1023 60 45.55 59.5523 45.55 59H43.55ZM32.85 46C30.1951 46 28 43.7854 28 41H26C26 44.842 29.0431 48 32.85 48V46ZM28 41C28 38.2146 30.1951 36 32.85 36V34C29.0431 34 26 37.158 26 41H28ZM52 41C52 42.4665 51.5639 43.7294 50.8403 44.6061C50.1311 45.4654 49.1123 46 47.8 46V48C49.7186 48 51.2997 47.1915 52.3828 45.8792C53.4515 44.5843 54 42.8472 54 41H52ZM47.15 36C49.8049 36 52 38.2146 52 41H54C54 37.158 50.9569 34 47.15 34V36ZM37.7149 38.6667H42.2851V36.6667H37.7149V38.6667ZM32.85 36C34.6847 36 36.0297 36.7398 36.8476 38.1645L38.5821 37.1688C37.3662 35.0508 35.3138 34 32.85 34V36ZM43.1502 38.1683C43.9728 36.7498 45.3284 36 47.15 36V34C44.6917 34 42.6372 35.0662 41.4201 37.165L43.1502 38.1683ZM32.85 48H40V46H32.85V48ZM40 48H47.8V46H40V48ZM40 47C39 47 39 47 39 47C39 47 39 47 39 47.0001C39 47.0001 39 47.0001 39 47.0002C39 47.0002 39 47.0002 39 47.0003C39 47.0003 39 47.0004 39 47.0005C39 47.0005 39 47.0006 39 47.0007C39 47.0007 39 47.0008 39 47.0009C39 47.001 39 47.0011 39 47.0012C39 47.0013 39 47.0014 39 47.0015C39 47.0016 39 47.0017 39 47.0018C39 47.002 39 47.0021 39 47.0022C39 47.0024 39 47.0025 39 47.0027C39 47.0028 39 47.0029 39 47.0031C39 47.0033 39 47.0034 39 47.0036C39 47.0038 39 47.0039 39 47.0041C39 47.0043 39 47.0045 39 47.0047C39 47.0049 39 47.0051 39 47.0053C39 47.0055 39 47.0057 39 47.0059C39 47.0061 39 47.0064 39 47.0066C39 47.0068 39 47.0071 39 47.0073C39 47.0075 39 47.0078 39 47.0081C39 47.0083 39 47.0086 39 47.0088C39 47.0091 39 47.0094 39 47.0096C39 47.0099 39 47.0102 39 47.0105C39 47.0108 39 47.0111 39 47.0114C39 47.0117 39 47.012 39 47.0123C39 47.0126 39 47.0129 39 47.0132C39 47.0136 39 47.0139 39 47.0142C39 47.0146 39 47.0149 39 47.0152C39 47.0156 39 47.0159 39 47.0163C39 47.0167 39 47.017 39 47.0174C39 47.0178 39 47.0181 39 47.0185C39 47.0189 39 47.0193 39 47.0197C39 47.0201 39 47.0205 39 47.0209C39 47.0213 39 47.0217 39 47.0221C39 47.0225 39 47.0229 39 47.0233C39 47.0238 39 47.0242 39 47.0246C39 47.0251 39 47.0255 39 47.026C39 47.0264 39 47.0269 39 47.0273C39 47.0278 39 47.0282 39 47.0287C39 47.0292 39 47.0297 39 47.0301C39 47.0306 39 47.0311 39 47.0316C39 47.0321 39 47.0326 39 47.0331C39 47.0336 39 47.0341 39 47.0346C39 47.0351 39 47.0356 39 47.0362C39 47.0367 39 47.0372 39 47.0378C39 47.0383 39 47.0388 39 47.0394C39 47.0399 39 47.0405 39 47.041C39 47.0416 39 47.0422 39 47.0427C39 47.0433 39 47.0439 39 47.0444C39 47.045 39 47.0456 39 47.0462C39 47.0468 39 47.0474 39 47.048C39 47.0486 39 47.0492 39 47.0498C39 47.0504 39 47.051 39 47.0516C39 47.0523 39 47.0529 39 47.0535C39 47.0542 39 47.0548 39 47.0554C39 47.0561 39 47.0567 39 47.0574C39 47.058 39 47.0587 39 47.0594C39 47.06 39 47.0607 39 47.0614C39 47.062 39 47.0627 39 47.0634C39 47.0641 39 47.0648 39 47.0655C39 47.0662 39 47.0669 39 47.0676C39 47.0683 39 47.069 39 47.0697C39 47.0704 39 47.0711 39 47.0719C39 47.0726 39 47.0733 39 47.0741C39 47.0748 39 47.0755 39 47.0763C39 47.077 39 47.0778 39 47.0785C39 47.0793 39 47.0801 39 47.0808C39 47.0816 39 47.0824 39 47.0831C39 47.0839 39 47.0847 39 47.0855C39 47.0863 39 47.0871 39 47.0879C39 47.0887 39 47.0895 39 47.0903C39 47.0911 39 47.0919 39 47.0927C39 47.0935 39 47.0944 39 47.0952C39 47.096 39 47.0968 39 47.0977C39 47.0985 39 47.0994 39 47.1002C39 47.1011 39 47.1019 39 47.1028C39 47.1036 39 47.1045 39 47.1054C39 47.1062 39 47.1071 39 47.108C39 47.1088 39 47.1097 39 47.1106C39 47.1115 39 47.1124 39 47.1133C39 47.1142 39 47.1151 39 47.116C39 47.1169 39 47.1178 39 47.1187C39 47.1196 39 47.1206 39 47.1215C39 47.1224 39 47.1233 39 47.1243C39 47.1252 39 47.1262 39 47.1271C39 47.128 39 47.129 39 47.1299C39 47.1309 39 47.1319 39 47.1328C39 47.1338 39 47.1348 39 47.1357C39 47.1367 39 47.1377 39 47.1387C39 47.1396 39 47.1406 39 47.1416C39 47.1426 39 47.1436 39 47.1446C39 47.1456 39 47.1466 39 47.1476C39 47.1486 39 47.1497 39 47.1507C39 47.1517 39 47.1527 39 47.1538C39 47.1548 39 47.1558 39 47.1569C39 47.1579 39 47.1589 39 47.16C39 47.161 39 47.1621 39 47.1631C39 47.1642 39 47.1653 39 47.1663C39 47.1674 39 47.1685 39 47.1695C39 47.1706 39 47.1717 39 47.1728C39 47.1739 39 47.175 39 47.176C39 47.1771 39 47.1782 39 47.1793C39 47.1804 39 47.1815 39 47.1827C39 47.1838 39 47.1849 39 47.186C39 47.1871 39 47.1883 39 47.1894C39 47.1905 39 47.1916 39 47.1928C39 47.1939 39 47.1951 39 47.1962C39 47.1974 39 47.1985 39 47.1997C39 47.2008 39 47.202 39 47.2031C39 47.2043 39 47.2055 39 47.2067C39 47.2078 39 47.209 39 47.2102C39 47.2114 39 47.2126 39 47.2138C39 47.2149 39 47.2161 39 47.2173C39 47.2185 39 47.2197 39 47.2209C39 47.2222 39 47.2234 39 47.2246C39 47.2258 39 47.227 39 47.2283C39 47.2295 39 47.2307 39 47.2319C39 47.2332 39 47.2344 39 47.2357C39 47.2369 39 47.2381 39 47.2394C39 47.2406 39 47.2419 39 47.2432C39 47.2444 39 47.2457 39 47.247C39 47.2482 39 47.2495 39 47.2508C39 47.252 39 47.2533 39 47.2546C39 47.2559 39 47.2572 39 47.2585C39 47.2598 39 47.2611 39 47.2624C39 47.2637 39 47.265 39 47.2663C39 47.2676 39 47.2689 39 47.2702C39 47.2715 39 47.2729 39 47.2742C39 47.2755 39 47.2768 39 47.2782C39 47.2795 39 47.2808 39 47.2822C39 47.2835 39 47.2849 39 47.2862C39 47.2876 39 47.2889 39 47.2903C39 47.2916 39 47.293 39 47.2944C39 47.2957 39 47.2971 39 47.2985C39 47.2999 39 47.3012 39 47.3026C39 47.304 39 47.3054 39 47.3068C39 47.3082 39 47.3096 39 47.311C39 47.3124 39 47.3138 39 47.3152C39 47.3166 39 47.318 39 47.3194C39 47.3208 39 47.3222 39 47.3236C39 47.3251 39 47.3265 39 47.3279C39 47.3293 39 47.3308 39 47.3322C39 47.3337 39 47.3351 39 47.3365C39 47.338 39 47.3394 39 47.3409C39 47.3423 39 47.3438 39 47.3452C39 47.3467 39 47.3482 39 47.3496C39 47.3511 39 47.3526 39 47.3541C39 47.3555 39 47.357 39 47.3585C39 47.36 39 47.3615 39 47.3629C39 47.3644 39 47.3659 39 47.3674C39 47.3689 39 47.3704 39 47.3719C39 47.3734 39 47.3749 39 47.3765C39 47.378 39 47.3795 39 47.381C39 47.3825 39 47.384 39 47.3856C39 47.3871 39 47.3886 39 47.3902C39 47.3917 39 47.3932 39 47.3948C39 47.3963 39 47.3979 39 47.3994C39 47.401 39 47.4025 39 47.4041C39 47.4056 39 47.4072 39 47.4087C39 47.4103 39 47.4119 39 47.4134C39 47.415 39 47.4166 39 47.4182C39 47.4197 39 47.4213 39 47.4229C39 47.4245 39 47.4261 39 47.4277C39 47.4292 39 47.4308 39 47.4324C39 47.434 39 47.4356 39 47.4372C39 47.4388 39 47.4405 39 47.4421C39 47.4437 39 47.4453 39 47.4469C39 47.4485 39 47.4502 39 47.4518C39 47.4534 39 47.455 39 47.4567C39 47.4583 39 47.4599 39 47.4616C39 47.4632 39 47.4649 39 47.4665C39 47.4681 39 47.4698 39 47.4714C39 47.4731 39 47.4748 39 47.4764C39 47.4781 39 47.4797 39 47.4814C39 47.4831 39 47.4847 39 47.4864C39 47.4881 39 47.4898 39 47.4914C39 47.4931 39 47.4948 39 47.4965C39 47.4982 39 47.4999 39 47.5016C39 47.5032 39 47.5049 39 47.5066C39 47.5083 39 47.51 39 47.5117C39 47.5135 39 47.5152 39 47.5169C39 47.5186 39 47.5203 39 47.522C39 47.5237 39 47.5255 39 47.5272C39 47.5289 39 47.5306 39 47.5324C39 47.5341 39 47.5358 39 47.5376C39 47.5393 39 47.541 39 47.5428C39 47.5445 39 47.5463 39 47.548C39 47.5498 39 47.5515 39 47.5533C39 47.555 39 47.5568 39 47.5586C39 47.5603 39 47.5621 39 47.5639C39 47.5656 39 47.5674 39 47.5692C39 47.5709 39 47.5727 39 47.5745C39 47.5763 39 47.5781 39 47.5798C39 47.5816 39 47.5834 39 47.5852C39 47.587 39 47.5888 39 47.5906C39 47.5924 39 47.5942 39 47.596C39 47.5978 39 47.5996 39 47.6014C39 47.6032 39 47.605 39 47.6069C39 47.6087 39 47.6105 39 47.6123C39 47.6141 39 47.616 39 47.6178C39 47.6196 39 47.6214 39 47.6233C39 47.6251 39 47.6269 39 47.6288C39 47.6306 39 47.6325 39 47.6343C39 47.6362 39 47.638 39 47.6399C39 47.6417 39 47.6436 39 47.6454C39 47.6473 39 47.6491 39 47.651C39 47.6529 39 47.6547 39 47.6566C39 47.6584 39 47.6603 39 47.6622C39 47.6641 39 47.6659 39 47.6678C39 47.6697 39 47.6716 39 47.6735C39 47.6753 39 47.6772 39 47.6791C39 47.681 39 47.6829 39 47.6848C39 47.6867 39 47.6886 39 47.6905C39 47.6924 39 47.6943 39 47.6962C39 47.6981 39 47.7 39 47.7019C39 47.7038 39 47.7057 39 47.7077C39 47.7096 39 47.7115 39 47.7134C39 47.7153 39 47.7173 39 47.7192C39 47.7211 39 47.723 39 47.725C39 47.7269 39 47.7288 39 47.7308C39 47.7327 39 47.7346 39 47.7366C39 47.7385 39 47.7405 39 47.7424C39 47.7444 39 47.7463 39 47.7483C39 47.7502 39 47.7522 39 47.7541C39 47.7561 39 47.758 39 47.76C39 47.762 39 47.7639 39 47.7659C39 47.7679 39 47.7698 39 47.7718C39 47.7738 39 47.7758 39 47.7777C39 47.7797 39 47.7817 39 47.7837C39 47.7856 39 47.7876 39 47.7896C39 47.7916 39 47.7936 39 47.7956C39 47.7976 39 47.7996 39 47.8016C39 47.8036 39 47.8056 39 47.8076C39 47.8096 39 47.8116 39 47.8136C39 47.8156 39 47.8176 39 47.8196C39 47.8216 39 47.8236 39 47.8256C39 47.8276 39 47.8297 39 47.8317C39 47.8337 39 47.8357 39 47.8377C39 47.8398 39 47.8418 39 47.8438C39 47.8458 39 47.8479 39 47.8499C39 47.8519 39 47.854 39 47.856C39 47.858 39 47.8601 39 47.8621C39 47.8642 39 47.8662 39 47.8683C39 47.8703 39 47.8723 39 47.8744C39 47.8764 39 47.8785 39 47.8806C39 47.8826 39 47.8847 39 47.8867C39 47.8888 39 47.8908 39 47.8929C39 47.895 39 47.897 39 47.8991C39 47.9012 39 47.9032 39 47.9053C39 47.9074 39 47.9094 39 47.9115C39 47.9136 39 47.9157 39 47.9178C39 47.9198 39 47.9219 39 47.924C39 47.9261 39 47.9282 39 47.9303C39 47.9323 39 47.9344 39 47.9365C39 47.9386 39 47.9407 39 47.9428C39 47.9449 39 47.947 39 47.9491C39 47.9512 39 47.9533 39 47.9554C39 47.9575 39 47.9596 39 47.9617C39 47.9638 39 47.9659 39 47.9681C39 47.9702 39 47.9723 39 47.9744C39 47.9765 39 47.9786 39 47.9807C39 47.9829 39 47.985 39 47.9871C39 47.9892 39 47.9914 39 47.9935C39 47.9956 39 47.9977 39 47.9999C39 48.002 39 48.0041 39 48.0063C39 48.0084 39 48.0105 39 48.0127C39 48.0148 39 48.0169 39 48.0191C39 48.0212 39 48.0234 39 48.0255C39 48.0277 39 48.0298 39 48.032C39 48.0341 39 48.0362 39 48.0384C39 48.0406 39 48.0427 39 48.0449C39 48.047 39 48.0492 39 48.0513C39 48.0535 39 48.0556 39 48.0578C39 48.06 39 48.0621 39 48.0643C39 48.0665 39 48.0686 39 48.0708C39 48.073 39 48.0751 39 48.0773C39 48.0795 39 48.0817 39 48.0838C39 48.086 39 48.0882 39 48.0904C39 48.0925 39 48.0947 39 48.0969C39 48.0991 39 48.1013 39 48.1035C39 48.1056 39 48.1078 39 48.11C39 48.1122 39 48.1144 39 48.1166C39 48.1188 39 48.121 39 48.1232C39 48.1254 39 48.1275 39 48.1297C39 48.1319 39 48.1341 39 48.1363C39 48.1385 39 48.1407 39 48.1429C39 48.1451 39 48.1474 39 48.1496C39 48.1518 39 48.154 39 48.1562C39 48.1584 39 48.1606 39 48.1628C39 48.165 39 48.1672 39 48.1694C39 48.1717 39 48.1739 39 48.1761C39 48.1783 39 48.1805 39 48.1828C39 48.185 39 48.1872 39 48.1894C39 48.1916 39 48.1939 39 48.1961C39 48.1983 39 48.2005 39 48.2028C39 48.205 39 48.2072 39 48.2095C39 48.2117 39 48.2139 39 48.2162C39 48.2184 39 48.2206 39 48.2229C39 48.2251 39 48.2273 39 48.2296C39 48.2318 39 48.2341 39 48.2363C39 48.2385 39 48.2408 39 48.243C39 48.2453 39 48.2475 39 48.2498C39 48.252 39 48.2542 39 48.2565C39 48.2587 39 48.261 39 48.2632C39 48.2655 39 48.2677 39 48.27C39 48.2723 39 48.2745 39 48.2768C39 48.279 39 48.2813 39 48.2835C39 48.2858 39 48.288 39 48.2903C39 48.2926 39 48.2948 39 48.2971C39 48.2994 39 48.3016 39 48.3039C39 48.3061 39 48.3084 39 48.3107C39 48.3129 39 48.3152 39 48.3175C39 48.3198 39 48.322 39 48.3243C39 48.3266 39 48.3288 39 48.3311C39 48.3334 39 48.3357 39 48.3379C39 48.3402 39 48.3425 39 48.3448C39 48.347 39 48.3493 39 48.3516C39 48.3539 39 48.3561 39 48.3584C39 48.3607 39 48.363 39 48.3653C39 48.3676 39 48.3698 39 48.3721C39 48.3744 39 48.3767 39 48.379C39 48.3813 39 48.3836 39 48.3858C39 48.3881 39 48.3904 39 48.3927C39 48.395 39 48.3973 39 48.3996C39 48.4019 39 48.4042 39 48.4065C39 48.4087 39 48.411 39 48.4133C39 48.4156 39 48.4179 39 48.4202C39 48.4225 39 48.4248 39 48.4271C39 48.4294 39 48.4317 39 48.434C39 48.4363 39 48.4386 39 48.4409C39 48.4432 39 48.4455 39 48.4478C39 48.4501 39 48.4524 39 48.4547C39 48.457 39 48.4593 39 48.4616C39 48.4639 39 48.4663 39 48.4686C39 48.4709 39 48.4732 39 48.4755C39 48.4778 39 48.4801 39 48.4824C39 48.4847 39 48.487 39 48.4893C39 48.4916 39 48.494 39 48.4963C39 48.4986 39 48.5009 39 48.5032C39 48.5055 39 48.5078 39 48.5102C39 48.5125 39 48.5148 39 48.5171C39 48.5194 39 48.5217 39 48.524C39 48.5264 39 48.5287 39 48.531C39 48.5333 39 48.5356 39 48.538C39 48.5403 39 48.5426 39 48.5449C39 48.5472 39 48.5495 39 48.5519C39 48.5542 39 48.5565 39 48.5588C39 48.5612 39 48.5635 39 48.5658C39 48.5681 39 48.5704 39 48.5728C39 48.5751 39 48.5774 39 48.5797C39 48.5821 39 48.5844 39 48.5867C39 48.589 39 48.5914 39 48.5937C39 48.596 39 48.5983 39 48.6007C39 48.603 39 48.6053 39 48.6077C39 48.61 39 48.6123 39 48.6146C39 48.617 39 48.6193 39 48.6216C39 48.624 39 48.6263 39 48.6286C39 48.6309 39 48.6333 39 48.6356C39 48.6379 39 48.6403 39 48.6426C39 48.6449 39 48.6473 39 48.6496C39 48.6519 39 48.6543 39 48.6566C39 48.6589 39 48.6612 39 48.6636C39 48.6659 39 48.6682 39 48.6706C39 48.6729 39 48.6752 39 48.6776C39 48.6799 39 48.6822 39 48.6846C39 48.6869 39 48.6892 39 48.6916C39 48.6939 39 48.6962 39 48.6986C39 48.7009 39 48.7032 39 48.7056C39 48.7079 39 48.7103 39 48.7126C39 48.7149 39 48.7173 39 48.7196C39 48.7219 39 48.7243 39 48.7266C39 48.7289 39 48.7313 39 48.7336C39 48.7359 39 48.7383 39 48.7406C39 48.7429 39 48.7453 39 48.7476C39 48.7499 39 48.7523 39 48.7546C39 48.757 39 48.7593 39 48.7616C39 48.764 39 48.7663 39 48.7686C39 48.771 39 48.7733 39 48.7756C39 48.778 39 48.7803 39 48.7826C39 48.785 39 48.7873 39 48.7896C39 48.792 39 48.7943 39 48.7967C39 48.799 39 48.8013 39 48.8037C39 48.806 39 48.8083 39 48.8107C39 48.813 39 48.8153 39 48.8177C39 48.82 39 48.8223 39 48.8247C39 48.827 39 48.8293 39 48.8317C39 48.834 39 48.8363 39 48.8387C39 48.841 39 48.8433 39 48.8457C39 48.848 39 48.8503 39 48.8527C39 48.855 39 48.8573 39 48.8597C39 48.862 39 48.8643 39 48.8667C39 48.869 39 48.8713 39 48.8737C39 48.876 39 48.8783 39 48.8806C39 48.883 39 48.8853 39 48.8876C39 48.89 39 48.8923 39 48.8946C39 48.897 39 48.8993 39 48.9016C39 48.9039 39 48.9063 39 48.9086C39 48.9109 39 48.9132 39 48.9156C39 48.9179 39 48.9202 39 48.9226C39 48.9249 39 48.9272 39 48.9295C39 48.9319 39 48.9342 39 48.9365C39 48.9388 39 48.9412 39 48.9435C39 48.9458 39 48.9481 39 48.9505C39 48.9528 39 48.9551 39 48.9574C39 48.9597 39 48.9621 39 48.9644C39 48.9667 39 48.969 39 48.9713C39 48.9737 39 48.976 39 48.9783C39 48.9806 39 48.9829 39 48.9853C39 48.9876 39 48.9899 39 48.9922C39 48.9945 39 48.9969 39 48.9992C39 49.0015 39 49.0038 39 49.0061C39 49.0084 39 49.0107 39 49.0131C39 49.0154 39 49.0177 39 49.02C39 49.0223 39 49.0246 39 49.0269C39 49.0292 39 49.0316 39 49.0339C39 49.0362 39 49.0385 39 49.0408C39 49.0431 39 49.0454 39 49.0477C39 49.05 39 49.0523 39 49.0546C39 49.0569 39 49.0592 39 49.0615C39 49.0639 39 49.0662 39 49.0685C39 49.0708 39 49.0731 39 49.0754C39 49.0777 39 49.08 39 49.0823C39 49.0846 39 49.0869 39 49.0892C39 49.0915 39 49.0938 39 49.0961C39 49.0984 39 49.1007 39 49.103C39 49.1052 39 49.1075 39 49.1098C39 49.1121 39 49.1144 39 49.1167C39 49.119 39 49.1213 39 49.1236C39 49.1259 39 49.1282 39 49.1305C39 49.1327 39 49.135 39 49.1373C39 49.1396 39 49.1419 39 49.1442C39 49.1465 39 49.1487 39 49.151C39 49.1533 39 49.1556 39 49.1579C39 49.1602 39 49.1624 39 49.1647C39 49.167 39 49.1693 39 49.1716C39 49.1738 39 49.1761 39 49.1784C39 49.1807 39 49.1829 39 49.1852C39 49.1875 39 49.1897 39 49.192C39 49.1943 39 49.1966 39 49.1988C39 49.2011 39 49.2034 39 49.2056C39 49.2079 39 49.2102 39 49.2124C39 49.2147 39 49.217 39 49.2192C39 49.2215 39 49.2238 39 49.226C39 49.2283 39 49.2305 39 49.2328C39 49.2351 39 49.2373 39 49.2396C39 49.2418 39 49.2441 39 49.2463C39 49.2486 39 49.2508 39 49.2531C39 49.2553 39 49.2576 39 49.2598C39 49.2621 39 49.2643 39 49.2666C39 49.2688 39 49.2711 39 49.2733C39 49.2756 39 49.2778 39 49.2801C39 49.2823 39 49.2845 39 49.2868C39 49.289 39 49.2913 39 49.2935C39 49.2957 39 49.298 39 49.3002C39 49.3024 39 49.3047 39 49.3069C39 49.3091 39 49.3114 39 49.3136C39 49.3158 39 49.318 39 49.3203C39 49.3225 39 49.3247 39 49.3269C39 49.3292 39 49.3314 39 49.3336C39 49.3358 39 49.3381 39 49.3403C39 49.3425 39 49.3447 39 49.3469C39 49.3491 39 49.3514 39 49.3536C39 49.3558 39 49.358 39 49.3602C39 49.3624 39 49.3646 39 49.3668C39 49.369 39 49.3712 39 49.3734C39 49.3756 39 49.3778 39 49.38C39 49.3822 39 49.3844 39 49.3866C39 49.3888 39 49.391 39 49.3932C39 49.3954 39 49.3976 39 49.3998C39 49.402 39 49.4042 39 49.4064C39 49.4086 39 49.4108 39 49.413C39 49.4151 39 49.4173 39 49.4195C39 49.4217 39 49.4239 39 49.426C39 49.4282 39 49.4304 39 49.4326C39 49.4348 39 49.4369 39 49.4391C39 49.4413 39 49.4434 39 49.4456C39 49.4478 39 49.45 39 49.4521C39 49.4543 39 49.4565 39 49.4586C39 49.4608 39 49.4629 39 49.4651C39 49.4673 39 49.4694 39 49.4716C39 49.4737 39 49.4759 39 49.478C39 49.4802 39 49.4823 39 49.4845C39 49.4866 39 49.4888 39 49.4909C39 49.4931 39 49.4952 39 49.4974C39 49.4995 39 49.5017 39 49.5038C39 49.5059 39 49.5081 39 49.5102C39 49.5123 39 49.5145 39 49.5166C39 49.5187 39 49.5209 39 49.523C39 49.5251 39 49.5272 39 49.5294C39 49.5315 39 49.5336 39 49.5357C39 49.5379 39 49.54 39 49.5421C39 49.5442 39 49.5463 39 49.5484C39 49.5505 39 49.5527 39 49.5548C39 49.5569 39 49.559 39 49.5611C39 49.5632 39 49.5653 39 49.5674C39 49.5695 39 49.5716 39 49.5737C39 49.5758 39 49.5779 39 49.58C39 49.5821 39 49.5842 39 49.5862C39 49.5883 39 49.5904 39 49.5925C39 49.5946 39 49.5967 39 49.5988C39 49.6008 39 49.6029 39 49.605C39 49.6071 39 49.6091 39 49.6112C39 49.6133 39 49.6154 39 49.6174C39 49.6195 39 49.6216 39 49.6236C39 49.6257 39 49.6278 39 49.6298C39 49.6319 39 49.6339 39 49.636C39 49.638 39 49.6401 39 49.6422C39 49.6442 39 49.6463 39 49.6483C39 49.6503 39 49.6524 39 49.6544C39 49.6565 39 49.6585 39 49.6606C39 49.6626 39 49.6646 39 49.6667H41C41 49.6646 41 49.6626 41 49.6606C41 49.6585 41 49.6565 41 49.6544C41 49.6524 41 49.6503 41 49.6483C41 49.6463 41 49.6442 41 49.6422C41 49.6401 41 49.638 41 49.636C41 49.6339 41 49.6319 41 49.6298C41 49.6278 41 49.6257 41 49.6236C41 49.6216 41 49.6195 41 49.6174C41 49.6154 41 49.6133 41 49.6112C41 49.6091 41 49.6071 41 49.605C41 49.6029 41 49.6008 41 49.5988C41 49.5967 41 49.5946 41 49.5925C41 49.5904 41 49.5883 41 49.5862C41 49.5842 41 49.5821 41 49.58C41 49.5779 41 49.5758 41 49.5737C41 49.5716 41 49.5695 41 49.5674C41 49.5653 41 49.5632 41 49.5611C41 49.559 41 49.5569 41 49.5548C41 49.5527 41 49.5505 41 49.5484C41 49.5463 41 49.5442 41 49.5421C41 49.54 41 49.5379 41 49.5357C41 49.5336 41 49.5315 41 49.5294C41 49.5272 41 49.5251 41 49.523C41 49.5209 41 49.5187 41 49.5166C41 49.5145 41 49.5123 41 49.5102C41 49.5081 41 49.5059 41 49.5038C41 49.5017 41 49.4995 41 49.4974C41 49.4952 41 49.4931 41 49.4909C41 49.4888 41 49.4866 41 49.4845C41 49.4823 41 49.4802 41 49.478C41 49.4759 41 49.4737 41 49.4716C41 49.4694 41 49.4673 41 49.4651C41 49.4629 41 49.4608 41 49.4586C41 49.4565 41 49.4543 41 49.4521C41 49.45 41 49.4478 41 49.4456C41 49.4434 41 49.4413 41 49.4391C41 49.4369 41 49.4348 41 49.4326C41 49.4304 41 49.4282 41 49.426C41 49.4239 41 49.4217 41 49.4195C41 49.4173 41 49.4151 41 49.413C41 49.4108 41 49.4086 41 49.4064C41 49.4042 41 49.402 41 49.3998C41 49.3976 41 49.3954 41 49.3932C41 49.391 41 49.3888 41 49.3866C41 49.3844 41 49.3822 41 49.38C41 49.3778 41 49.3756 41 49.3734C41 49.3712 41 49.369 41 49.3668C41 49.3646 41 49.3624 41 49.3602C41 49.358 41 49.3558 41 49.3536C41 49.3514 41 49.3491 41 49.3469C41 49.3447 41 49.3425 41 49.3403C41 49.3381 41 49.3358 41 49.3336C41 49.3314 41 49.3292 41 49.3269C41 49.3247 41 49.3225 41 49.3203C41 49.318 41 49.3158 41 49.3136C41 49.3114 41 49.3091 41 49.3069C41 49.3047 41 49.3024 41 49.3002C41 49.298 41 49.2957 41 49.2935C41 49.2913 41 49.289 41 49.2868C41 49.2845 41 49.2823 41 49.2801C41 49.2778 41 49.2756 41 49.2733C41 49.2711 41 49.2688 41 49.2666C41 49.2643 41 49.2621 41 49.2598C41 49.2576 41 49.2553 41 49.2531C41 49.2508 41 49.2486 41 49.2463C41 49.2441 41 49.2418 41 49.2396C41 49.2373 41 49.2351 41 49.2328C41 49.2305 41 49.2283 41 49.226C41 49.2238 41 49.2215 41 49.2192C41 49.217 41 49.2147 41 49.2124C41 49.2102 41 49.2079 41 49.2056C41 49.2034 41 49.2011 41 49.1988C41 49.1966 41 49.1943 41 49.192C41 49.1897 41 49.1875 41 49.1852C41 49.1829 41 49.1807 41 49.1784C41 49.1761 41 49.1738 41 49.1716C41 49.1693 41 49.167 41 49.1647C41 49.1624 41 49.1602 41 49.1579C41 49.1556 41 49.1533 41 49.151C41 49.1487 41 49.1465 41 49.1442C41 49.1419 41 49.1396 41 49.1373C41 49.135 41 49.1327 41 49.1305C41 49.1282 41 49.1259 41 49.1236C41 49.1213 41 49.119 41 49.1167C41 49.1144 41 49.1121 41 49.1098C41 49.1075 41 49.1052 41 49.103C41 49.1007 41 49.0984 41 49.0961C41 49.0938 41 49.0915 41 49.0892C41 49.0869 41 49.0846 41 49.0823C41 49.08 41 49.0777 41 49.0754C41 49.0731 41 49.0708 41 49.0685C41 49.0662 41 49.0639 41 49.0615C41 49.0592 41 49.0569 41 49.0546C41 49.0523 41 49.05 41 49.0477C41 49.0454 41 49.0431 41 49.0408C41 49.0385 41 49.0362 41 49.0339C41 49.0316 41 49.0292 41 49.0269C41 49.0246 41 49.0223 41 49.02C41 49.0177 41 49.0154 41 49.0131C41 49.0107 41 49.0084 41 49.0061C41 49.0038 41 49.0015 41 48.9992C41 48.9969 41 48.9945 41 48.9922C41 48.9899 41 48.9876 41 48.9853C41 48.9829 41 48.9806 41 48.9783C41 48.976 41 48.9737 41 48.9713C41 48.969 41 48.9667 41 48.9644C41 48.9621 41 48.9597 41 48.9574C41 48.9551 41 48.9528 41 48.9505C41 48.9481 41 48.9458 41 48.9435C41 48.9412 41 48.9388 41 48.9365C41 48.9342 41 48.9319 41 48.9295C41 48.9272 41 48.9249 41 48.9226C41 48.9202 41 48.9179 41 48.9156C41 48.9132 41 48.9109 41 48.9086C41 48.9063 41 48.9039 41 48.9016C41 48.8993 41 48.897 41 48.8946C41 48.8923 41 48.89 41 48.8876C41 48.8853 41 48.883 41 48.8806C41 48.8783 41 48.876 41 48.8737C41 48.8713 41 48.869 41 48.8667C41 48.8643 41 48.862 41 48.8597C41 48.8573 41 48.855 41 48.8527C41 48.8503 41 48.848 41 48.8457C41 48.8433 41 48.841 41 48.8387C41 48.8363 41 48.834 41 48.8317C41 48.8293 41 48.827 41 48.8247C41 48.8223 41 48.82 41 48.8177C41 48.8153 41 48.813 41 48.8107C41 48.8083 41 48.806 41 48.8037C41 48.8013 41 48.799 41 48.7967C41 48.7943 41 48.792 41 48.7896C41 48.7873 41 48.785 41 48.7826C41 48.7803 41 48.778 41 48.7756C41 48.7733 41 48.771 41 48.7686C41 48.7663 41 48.764 41 48.7616C41 48.7593 41 48.757 41 48.7546C41 48.7523 41 48.7499 41 48.7476C41 48.7453 41 48.7429 41 48.7406C41 48.7383 41 48.7359 41 48.7336C41 48.7313 41 48.7289 41 48.7266C41 48.7243 41 48.7219 41 48.7196C41 48.7173 41 48.7149 41 48.7126C41 48.7103 41 48.7079 41 48.7056C41 48.7032 41 48.7009 41 48.6986C41 48.6962 41 48.6939 41 48.6916C41 48.6892 41 48.6869 41 48.6846C41 48.6822 41 48.6799 41 48.6776C41 48.6752 41 48.6729 41 48.6706C41 48.6682 41 48.6659 41 48.6636C41 48.6612 41 48.6589 41 48.6566C41 48.6543 41 48.6519 41 48.6496C41 48.6473 41 48.6449 41 48.6426C41 48.6403 41 48.6379 41 48.6356C41 48.6333 41 48.6309 41 48.6286C41 48.6263 41 48.624 41 48.6216C41 48.6193 41 48.617 41 48.6146C41 48.6123 41 48.61 41 48.6077C41 48.6053 41 48.603 41 48.6007C41 48.5983 41 48.596 41 48.5937C41 48.5914 41 48.589 41 48.5867C41 48.5844 41 48.5821 41 48.5797C41 48.5774 41 48.5751 41 48.5728C41 48.5704 41 48.5681 41 48.5658C41 48.5635 41 48.5612 41 48.5588C41 48.5565 41 48.5542 41 48.5519C41 48.5495 41 48.5472 41 48.5449C41 48.5426 41 48.5403 41 48.538C41 48.5356 41 48.5333 41 48.531C41 48.5287 41 48.5264 41 48.524C41 48.5217 41 48.5194 41 48.5171C41 48.5148 41 48.5125 41 48.5102C41 48.5078 41 48.5055 41 48.5032C41 48.5009 41 48.4986 41 48.4963C41 48.494 41 48.4916 41 48.4893C41 48.487 41 48.4847 41 48.4824C41 48.4801 41 48.4778 41 48.4755C41 48.4732 41 48.4709 41 48.4686C41 48.4663 41 48.4639 41 48.4616C41 48.4593 41 48.457 41 48.4547C41 48.4524 41 48.4501 41 48.4478C41 48.4455 41 48.4432 41 48.4409C41 48.4386 41 48.4363 41 48.434C41 48.4317 41 48.4294 41 48.4271C41 48.4248 41 48.4225 41 48.4202C41 48.4179 41 48.4156 41 48.4133C41 48.411 41 48.4087 41 48.4065C41 48.4042 41 48.4019 41 48.3996C41 48.3973 41 48.395 41 48.3927C41 48.3904 41 48.3881 41 48.3858C41 48.3836 41 48.3813 41 48.379C41 48.3767 41 48.3744 41 48.3721C41 48.3698 41 48.3676 41 48.3653C41 48.363 41 48.3607 41 48.3584C41 48.3561 41 48.3539 41 48.3516C41 48.3493 41 48.347 41 48.3448C41 48.3425 41 48.3402 41 48.3379C41 48.3357 41 48.3334 41 48.3311C41 48.3288 41 48.3266 41 48.3243C41 48.322 41 48.3198 41 48.3175C41 48.3152 41 48.3129 41 48.3107C41 48.3084 41 48.3061 41 48.3039C41 48.3016 41 48.2994 41 48.2971C41 48.2948 41 48.2926 41 48.2903C41 48.288 41 48.2858 41 48.2835C41 48.2813 41 48.279 41 48.2768C41 48.2745 41 48.2723 41 48.27C41 48.2677 41 48.2655 41 48.2632C41 48.261 41 48.2587 41 48.2565C41 48.2542 41 48.252 41 48.2498C41 48.2475 41 48.2453 41 48.243C41 48.2408 41 48.2385 41 48.2363C41 48.2341 41 48.2318 41 48.2296C41 48.2273 41 48.2251 41 48.2229C41 48.2206 41 48.2184 41 48.2162C41 48.2139 41 48.2117 41 48.2095C41 48.2072 41 48.205 41 48.2028C41 48.2005 41 48.1983 41 48.1961C41 48.1939 41 48.1916 41 48.1894C41 48.1872 41 48.185 41 48.1828C41 48.1805 41 48.1783 41 48.1761C41 48.1739 41 48.1717 41 48.1694C41 48.1672 41 48.165 41 48.1628C41 48.1606 41 48.1584 41 48.1562C41 48.154 41 48.1518 41 48.1496C41 48.1474 41 48.1451 41 48.1429C41 48.1407 41 48.1385 41 48.1363C41 48.1341 41 48.1319 41 48.1297C41 48.1275 41 48.1254 41 48.1232C41 48.121 41 48.1188 41 48.1166C41 48.1144 41 48.1122 41 48.11C41 48.1078 41 48.1056 41 48.1035C41 48.1013 41 48.0991 41 48.0969C41 48.0947 41 48.0925 41 48.0904C41 48.0882 41 48.086 41 48.0838C41 48.0817 41 48.0795 41 48.0773C41 48.0751 41 48.073 41 48.0708C41 48.0686 41 48.0665 41 48.0643C41 48.0621 41 48.06 41 48.0578C41 48.0556 41 48.0535 41 48.0513C41 48.0492 41 48.047 41 48.0449C41 48.0427 41 48.0406 41 48.0384C41 48.0362 41 48.0341 41 48.032C41 48.0298 41 48.0277 41 48.0255C41 48.0234 41 48.0212 41 48.0191C41 48.0169 41 48.0148 41 48.0127C41 48.0105 41 48.0084 41 48.0063C41 48.0041 41 48.002 41 47.9999C41 47.9977 41 47.9956 41 47.9935C41 47.9914 41 47.9892 41 47.9871C41 47.985 41 47.9829 41 47.9807C41 47.9786 41 47.9765 41 47.9744C41 47.9723 41 47.9702 41 47.9681C41 47.9659 41 47.9638 41 47.9617C41 47.9596 41 47.9575 41 47.9554C41 47.9533 41 47.9512 41 47.9491C41 47.947 41 47.9449 41 47.9428C41 47.9407 41 47.9386 41 47.9365C41 47.9344 41 47.9323 41 47.9303C41 47.9282 41 47.9261 41 47.924C41 47.9219 41 47.9198 41 47.9178C41 47.9157 41 47.9136 41 47.9115C41 47.9094 41 47.9074 41 47.9053C41 47.9032 41 47.9012 41 47.8991C41 47.897 41 47.895 41 47.8929C41 47.8908 41 47.8888 41 47.8867C41 47.8847 41 47.8826 41 47.8806C41 47.8785 41 47.8764 41 47.8744C41 47.8723 41 47.8703 41 47.8683C41 47.8662 41 47.8642 41 47.8621C41 47.8601 41 47.858 41 47.856C41 47.854 41 47.8519 41 47.8499C41 47.8479 41 47.8458 41 47.8438C41 47.8418 41 47.8398 41 47.8377C41 47.8357 41 47.8337 41 47.8317C41 47.8297 41 47.8276 41 47.8256C41 47.8236 41 47.8216 41 47.8196C41 47.8176 41 47.8156 41 47.8136C41 47.8116 41 47.8096 41 47.8076C41 47.8056 41 47.8036 41 47.8016C41 47.7996 41 47.7976 41 47.7956C41 47.7936 41 47.7916 41 47.7896C41 47.7876 41 47.7856 41 47.7837C41 47.7817 41 47.7797 41 47.7777C41 47.7758 41 47.7738 41 47.7718C41 47.7698 41 47.7679 41 47.7659C41 47.7639 41 47.762 41 47.76C41 47.758 41 47.7561 41 47.7541C41 47.7522 41 47.7502 41 47.7483C41 47.7463 41 47.7444 41 47.7424C41 47.7405 41 47.7385 41 47.7366C41 47.7346 41 47.7327 41 47.7308C41 47.7288 41 47.7269 41 47.725C41 47.723 41 47.7211 41 47.7192C41 47.7173 41 47.7153 41 47.7134C41 47.7115 41 47.7096 41 47.7077C41 47.7057 41 47.7038 41 47.7019C41 47.7 41 47.6981 41 47.6962C41 47.6943 41 47.6924 41 47.6905C41 47.6886 41 47.6867 41 47.6848C41 47.6829 41 47.681 41 47.6791C41 47.6772 41 47.6753 41 47.6735C41 47.6716 41 47.6697 41 47.6678C41 47.6659 41 47.6641 41 47.6622C41 47.6603 41 47.6584 41 47.6566C41 47.6547 41 47.6529 41 47.651C41 47.6491 41 47.6473 41 47.6454C41 47.6436 41 47.6417 41 47.6399C41 47.638 41 47.6362 41 47.6343C41 47.6325 41 47.6306 41 47.6288C41 47.6269 41 47.6251 41 47.6233C41 47.6214 41 47.6196 41 47.6178C41 47.616 41 47.6141 41 47.6123C41 47.6105 41 47.6087 41 47.6069C41 47.605 41 47.6032 41 47.6014C41 47.5996 41 47.5978 41 47.596C41 47.5942 41 47.5924 41 47.5906C41 47.5888 41 47.587 41 47.5852C41 47.5834 41 47.5816 41 47.5798C41 47.5781 41 47.5763 41 47.5745C41 47.5727 41 47.5709 41 47.5692C41 47.5674 41 47.5656 41 47.5639C41 47.5621 41 47.5603 41 47.5586C41 47.5568 41 47.555 41 47.5533C41 47.5515 41 47.5498 41 47.548C41 47.5463 41 47.5445 41 47.5428C41 47.541 41 47.5393 41 47.5376C41 47.5358 41 47.5341 41 47.5324C41 47.5306 41 47.5289 41 47.5272C41 47.5255 41 47.5237 41 47.522C41 47.5203 41 47.5186 41 47.5169C41 47.5152 41 47.5135 41 47.5117C41 47.51 41 47.5083 41 47.5066C41 47.5049 41 47.5032 41 47.5016C41 47.4999 41 47.4982 41 47.4965C41 47.4948 41 47.4931 41 47.4914C41 47.4898 41 47.4881 41 47.4864C41 47.4847 41 47.4831 41 47.4814C41 47.4797 41 47.4781 41 47.4764C41 47.4748 41 47.4731 41 47.4714C41 47.4698 41 47.4681 41 47.4665C41 47.4649 41 47.4632 41 47.4616C41 47.4599 41 47.4583 41 47.4567C41 47.455 41 47.4534 41 47.4518C41 47.4502 41 47.4485 41 47.4469C41 47.4453 41 47.4437 41 47.4421C41 47.4405 41 47.4388 41 47.4372C41 47.4356 41 47.434 41 47.4324C41 47.4308 41 47.4292 41 47.4277C41 47.4261 41 47.4245 41 47.4229C41 47.4213 41 47.4197 41 47.4182C41 47.4166 41 47.415 41 47.4134C41 47.4119 41 47.4103 41 47.4087C41 47.4072 41 47.4056 41 47.4041C41 47.4025 41 47.401 41 47.3994C41 47.3979 41 47.3963 41 47.3948C41 47.3932 41 47.3917 41 47.3902C41 47.3886 41 47.3871 41 47.3856C41 47.384 41 47.3825 41 47.381C41 47.3795 41 47.378 41 47.3765C41 47.3749 41 47.3734 41 47.3719C41 47.3704 41 47.3689 41 47.3674C41 47.3659 41 47.3644 41 47.3629C41 47.3615 41 47.36 41 47.3585C41 47.357 41 47.3555 41 47.3541C41 47.3526 41 47.3511 41 47.3496C41 47.3482 41 47.3467 41 47.3452C41 47.3438 41 47.3423 41 47.3409C41 47.3394 41 47.338 41 47.3365C41 47.3351 41 47.3337 41 47.3322C41 47.3308 41 47.3293 41 47.3279C41 47.3265 41 47.3251 41 47.3236C41 47.3222 41 47.3208 41 47.3194C41 47.318 41 47.3166 41 47.3152C41 47.3138 41 47.3124 41 47.311C41 47.3096 41 47.3082 41 47.3068C41 47.3054 41 47.304 41 47.3026C41 47.3012 41 47.2999 41 47.2985C41 47.2971 41 47.2957 41 47.2944C41 47.293 41 47.2916 41 47.2903C41 47.2889 41 47.2876 41 47.2862C41 47.2849 41 47.2835 41 47.2822C41 47.2808 41 47.2795 41 47.2782C41 47.2768 41 47.2755 41 47.2742C41 47.2729 41 47.2715 41 47.2702C41 47.2689 41 47.2676 41 47.2663C41 47.265 41 47.2637 41 47.2624C41 47.2611 41 47.2598 41 47.2585C41 47.2572 41 47.2559 41 47.2546C41 47.2533 41 47.252 41 47.2508C41 47.2495 41 47.2482 41 47.247C41 47.2457 41 47.2444 41 47.2432C41 47.2419 41 47.2406 41 47.2394C41 47.2381 41 47.2369 41 47.2357C41 47.2344 41 47.2332 41 47.2319C41 47.2307 41 47.2295 41 47.2283C41 47.227 41 47.2258 41 47.2246C41 47.2234 41 47.2222 41 47.2209C41 47.2197 41 47.2185 41 47.2173C41 47.2161 41 47.2149 41 47.2138C41 47.2126 41 47.2114 41 47.2102C41 47.209 41 47.2078 41 47.2067C41 47.2055 41 47.2043 41 47.2031C41 47.202 41 47.2008 41 47.1997C41 47.1985 41 47.1974 41 47.1962C41 47.1951 41 47.1939 41 47.1928C41 47.1916 41 47.1905 41 47.1894C41 47.1883 41 47.1871 41 47.186C41 47.1849 41 47.1838 41 47.1827C41 47.1815 41 47.1804 41 47.1793C41 47.1782 41 47.1771 41 47.176C41 47.175 41 47.1739 41 47.1728C41 47.1717 41 47.1706 41 47.1695C41 47.1685 41 47.1674 41 47.1663C41 47.1653 41 47.1642 41 47.1631C41 47.1621 41 47.161 41 47.16C41 47.1589 41 47.1579 41 47.1569C41 47.1558 41 47.1548 41 47.1538C41 47.1527 41 47.1517 41 47.1507C41 47.1497 41 47.1486 41 47.1476C41 47.1466 41 47.1456 41 47.1446C41 47.1436 41 47.1426 41 47.1416C41 47.1406 41 47.1396 41 47.1387C41 47.1377 41 47.1367 41 47.1357C41 47.1348 41 47.1338 41 47.1328C41 47.1319 41 47.1309 41 47.1299C41 47.129 41 47.128 41 47.1271C41 47.1262 41 47.1252 41 47.1243C41 47.1233 41 47.1224 41 47.1215C41 47.1206 41 47.1196 41 47.1187C41 47.1178 41 47.1169 41 47.116C41 47.1151 41 47.1142 41 47.1133C41 47.1124 41 47.1115 41 47.1106C41 47.1097 41 47.1088 41 47.108C41 47.1071 41 47.1062 41 47.1054C41 47.1045 41 47.1036 41 47.1028C41 47.1019 41 47.1011 41 47.1002C41 47.0994 41 47.0985 41 47.0977C41 47.0968 41 47.096 41 47.0952C41 47.0944 41 47.0935 41 47.0927C41 47.0919 41 47.0911 41 47.0903C41 47.0895 41 47.0887 41 47.0879C41 47.0871 41 47.0863 41 47.0855C41 47.0847 41 47.0839 41 47.0831C41 47.0824 41 47.0816 41 47.0808C41 47.0801 41 47.0793 41 47.0785C41 47.0778 41 47.077 41 47.0763C41 47.0755 41 47.0748 41 47.0741C41 47.0733 41 47.0726 41 47.0719C41 47.0711 41 47.0704 41 47.0697C41 47.069 41 47.0683 41 47.0676C41 47.0669 41 47.0662 41 47.0655C41 47.0648 41 47.0641 41 47.0634C41 47.0627 41 47.062 41 47.0614C41 47.0607 41 47.06 41 47.0594C41 47.0587 41 47.058 41 47.0574C41 47.0567 41 47.0561 41 47.0554C41 47.0548 41 47.0542 41 47.0535C41 47.0529 41 47.0523 41 47.0516C41 47.051 41 47.0504 41 47.0498C41 47.0492 41 47.0486 41 47.048C41 47.0474 41 47.0468 41 47.0462C41 47.0456 41 47.045 41 47.0444C41 47.0439 41 47.0433 41 47.0427C41 47.0422 41 47.0416 41 47.041C41 47.0405 41 47.0399 41 47.0394C41 47.0388 41 47.0383 41 47.0378C41 47.0372 41 47.0367 41 47.0362C41 47.0356 41 47.0351 41 47.0346C41 47.0341 41 47.0336 41 47.0331C41 47.0326 41 47.0321 41 47.0316C41 47.0311 41 47.0306 41 47.0301C41 47.0297 41 47.0292 41 47.0287C41 47.0282 41 47.0278 41 47.0273C41 47.0269 41 47.0264 41 47.026C41 47.0255 41 47.0251 41 47.0246C41 47.0242 41 47.0238 41 47.0233C41 47.0229 41 47.0225 41 47.0221C41 47.0217 41 47.0213 41 47.0209C41 47.0205 41 47.0201 41 47.0197C41 47.0193 41 47.0189 41 47.0185C41 47.0181 41 47.0178 41 47.0174C41 47.017 41 47.0167 41 47.0163C41 47.0159 41 47.0156 41 47.0152C41 47.0149 41 47.0146 41 47.0142C41 47.0139 41 47.0136 41 47.0132C41 47.0129 41 47.0126 41 47.0123C41 47.012 41 47.0117 41 47.0114C41 47.0111 41 47.0108 41 47.0105C41 47.0102 41 47.0099 41 47.0096C41 47.0094 41 47.0091 41 47.0088C41 47.0086 41 47.0083 41 47.0081C41 47.0078 41 47.0075 41 47.0073C41 47.0071 41 47.0068 41 47.0066C41 47.0064 41 47.0061 41 47.0059C41 47.0057 41 47.0055 41 47.0053C41 47.0051 41 47.0049 41 47.0047C41 47.0045 41 47.0043 41 47.0041C41 47.0039 41 47.0038 41 47.0036C41 47.0034 41 47.0033 41 47.0031C41 47.0029 41 47.0028 41 47.0027C41 47.0025 41 47.0024 41 47.0022C41 47.0021 41 47.002 41 47.0018C41 47.0017 41 47.0016 41 47.0015C41 47.0014 41 47.0013 41 47.0012C41 47.0011 41 47.001 41 47.0009C41 47.0008 41 47.0007 41 47.0007C41 47.0006 41 47.0005 41 47.0005C41 47.0004 41 47.0003 41 47.0003C41 47.0002 41 47.0002 41 47.0002C41 47.0001 41 47.0001 41 47.0001C41 47 41 47 41 47C41 47 41 47 40 47ZM39 49.6667C39 50.346 39.0312 51.1745 39.2548 51.9251C39.485 52.6979 39.9554 53.4976 40.8946 53.9141L41.7054 52.0859C41.4797 51.9857 41.3 51.7854 41.1715 51.354C41.0364 50.9004 41 50.3207 41 49.6667H39ZM40.8946 53.9141C41.0608 53.9879 41.2662 54.0245 41.3431 54.0391C41.4651 54.0622 41.6195 54.0879 41.7713 54.1138C42.0896 54.168 42.4534 54.2326 42.8001 54.319C43.1609 54.4089 43.4306 54.5054 43.5893 54.5963C43.7896 54.7109 43.55 54.6495 43.55 54.3333H45.55C45.55 53.5241 44.9431 53.0667 44.5827 52.8605C44.1809 52.6305 43.6965 52.4812 43.2837 52.3784C42.857 52.272 42.4277 52.1968 42.1074 52.1422C41.9399 52.1136 41.8136 52.0926 41.7153 52.074C41.5718 52.0468 41.6171 52.0467 41.7054 52.0859L40.8946 53.9141ZM43.55 54.3333C43.55 54.3385 43.55 54.3437 43.55 54.349C43.55 54.3542 43.55 54.3594 43.55 54.3646C43.55 54.3698 43.55 54.3749 43.55 54.3801C43.55 54.3853 43.55 54.3905 43.55 54.3957C43.55 54.4009 43.55 54.4061 43.55 54.4113C43.55 54.4164 43.55 54.4216 43.55 54.4268C43.55 54.432 43.55 54.4372 43.55 54.4423C43.55 54.4475 43.55 54.4527 43.55 54.4578C43.55 54.463 43.55 54.4682 43.55 54.4733C43.55 54.4785 43.55 54.4837 43.55 54.4888C43.55 54.494 43.55 54.4991 43.55 54.5043C43.55 54.5094 43.55 54.5146 43.55 54.5197C43.55 54.5249 43.55 54.53 43.55 54.5351C43.55 54.5403 43.55 54.5454 43.55 54.5506C43.55 54.5557 43.55 54.5608 43.55 54.566C43.55 54.5711 43.55 54.5762 43.55 54.5813C43.55 54.5865 43.55 54.5916 43.55 54.5967C43.55 54.6018 43.55 54.6069 43.55 54.6121C43.55 54.6172 43.55 54.6223 43.55 54.6274C43.55 54.6325 43.55 54.6376 43.55 54.6427C43.55 54.6478 43.55 54.6529 43.55 54.658C43.55 54.6631 43.55 54.6682 43.55 54.6733C43.55 54.6784 43.55 54.6835 43.55 54.6886C43.55 54.6936 43.55 54.6987 43.55 54.7038C43.55 54.7089 43.55 54.714 43.55 54.719C43.55 54.7241 43.55 54.7292 43.55 54.7343C43.55 54.7393 43.55 54.7444 43.55 54.7495C43.55 54.7545 43.55 54.7596 43.55 54.7646C43.55 54.7697 43.55 54.7747 43.55 54.7798C43.55 54.7849 43.55 54.7899 43.55 54.7949C43.55 54.8 43.55 54.805 43.55 54.8101C43.55 54.8151 43.55 54.8202 43.55 54.8252C43.55 54.8302 43.55 54.8353 43.55 54.8403C43.55 54.8453 43.55 54.8503 43.55 54.8554C43.55 54.8604 43.55 54.8654 43.55 54.8704C43.55 54.8755 43.55 54.8805 43.55 54.8855C43.55 54.8905 43.55 54.8955 43.55 54.9005C43.55 54.9055 43.55 54.9105 43.55 54.9155C43.55 54.9205 43.55 54.9255 43.55 54.9305C43.55 54.9355 43.55 54.9405 43.55 54.9455C43.55 54.9505 43.55 54.9555 43.55 54.9604C43.55 54.9654 43.55 54.9704 43.55 54.9754C43.55 54.9804 43.55 54.9853 43.55 54.9903C43.55 54.9953 43.55 55.0003 43.55 55.0052C43.55 55.0102 43.55 55.0151 43.55 55.0201C43.55 55.0251 43.55 55.03 43.55 55.035C43.55 55.0399 43.55 55.0449 43.55 55.0498C43.55 55.0548 43.55 55.0597 43.55 55.0647C43.55 55.0696 43.55 55.0745 43.55 55.0795C43.55 55.0844 43.55 55.0893 43.55 55.0943C43.55 55.0992 43.55 55.1041 43.55 55.109C43.55 55.114 43.55 55.1189 43.55 55.1238C43.55 55.1287 43.55 55.1336 43.55 55.1385C43.55 55.1435 43.55 55.1484 43.55 55.1533C43.55 55.1582 43.55 55.1631 43.55 55.168C43.55 55.1729 43.55 55.1778 43.55 55.1827C43.55 55.1876 43.55 55.1924 43.55 55.1973C43.55 55.2022 43.55 55.2071 43.55 55.212C43.55 55.2169 43.55 55.2217 43.55 55.2266C43.55 55.2315 43.55 55.2364 43.55 55.2412C43.55 55.2461 43.55 55.251 43.55 55.2558C43.55 55.2607 43.55 55.2655 43.55 55.2704C43.55 55.2752 43.55 55.2801 43.55 55.2849C43.55 55.2898 43.55 55.2946 43.55 55.2995C43.55 55.3043 43.55 55.3092 43.55 55.314C43.55 55.3188 43.55 55.3237 43.55 55.3285C43.55 55.3333 43.55 55.3381 43.55 55.343C43.55 55.3478 43.55 55.3526 43.55 55.3574C43.55 55.3622 43.55 55.3671 43.55 55.3719C43.55 55.3767 43.55 55.3815 43.55 55.3863C43.55 55.3911 43.55 55.3959 43.55 55.4007C43.55 55.4055 43.55 55.4103 43.55 55.4151C43.55 55.4199 43.55 55.4247 43.55 55.4294C43.55 55.4342 43.55 55.439 43.55 55.4438C43.55 55.4486 43.55 55.4533 43.55 55.4581C43.55 55.4629 43.55 55.4676 43.55 55.4724C43.55 55.4772 43.55 55.4819 43.55 55.4867C43.55 55.4914 43.55 55.4962 43.55 55.501C43.55 55.5057 43.55 55.5105 43.55 55.5152C43.55 55.5199 43.55 55.5247 43.55 55.5294C43.55 55.5342 43.55 55.5389 43.55 55.5436C43.55 55.5484 43.55 55.5531 43.55 55.5578C43.55 55.5625 43.55 55.5673 43.55 55.572C43.55 55.5767 43.55 55.5814 43.55 55.5861C43.55 55.5908 43.55 55.5955 43.55 55.6002C43.55 55.6049 43.55 55.6096 43.55 55.6143C43.55 55.619 43.55 55.6237 43.55 55.6284C43.55 55.6331 43.55 55.6378 43.55 55.6425C43.55 55.6472 43.55 55.6518 43.55 55.6565C43.55 55.6612 43.55 55.6659 43.55 55.6705C43.55 55.6752 43.55 55.6799 43.55 55.6845C43.55 55.6892 43.55 55.6939 43.55 55.6985C43.55 55.7032 43.55 55.7078 43.55 55.7125C43.55 55.7171 43.55 55.7218 43.55 55.7264C43.55 55.7311 43.55 55.7357 43.55 55.7403C43.55 55.745 43.55 55.7496 43.55 55.7542C43.55 55.7589 43.55 55.7635 43.55 55.7681C43.55 55.7727 43.55 55.7773 43.55 55.782C43.55 55.7866 43.55 55.7912 43.55 55.7958C43.55 55.8004 43.55 55.805 43.55 55.8096C43.55 55.8142 43.55 55.8188 43.55 55.8234C43.55 55.828 43.55 55.8326 43.55 55.8372C43.55 55.8418 43.55 55.8463 43.55 55.8509C43.55 55.8555 43.55 55.8601 43.55 55.8646C43.55 55.8692 43.55 55.8738 43.55 55.8783C43.55 55.8829 43.55 55.8875 43.55 55.892C43.55 55.8966 43.55 55.9011 43.55 55.9057C43.55 55.9102 43.55 55.9148 43.55 55.9193C43.55 55.9239 43.55 55.9284 43.55 55.9329C43.55 55.9375 43.55 55.942 43.55 55.9465C43.55 55.9511 43.55 55.9556 43.55 55.9601C43.55 55.9646 43.55 55.9692 43.55 55.9737C43.55 55.9782 43.55 55.9827 43.55 55.9872C43.55 55.9917 43.55 55.9962 43.55 56.0007C43.55 56.0052 43.55 56.0097 43.55 56.0142C43.55 56.0187 43.55 56.0232 43.55 56.0277C43.55 56.0322 43.55 56.0366 43.55 56.0411C43.55 56.0456 43.55 56.0501 43.55 56.0545C43.55 56.059 43.55 56.0635 43.55 56.0679C43.55 56.0724 43.55 56.0768 43.55 56.0813C43.55 56.0858 43.55 56.0902 43.55 56.0947C43.55 56.0991 43.55 56.1035 43.55 56.108C43.55 56.1124 43.55 56.1169 43.55 56.1213C43.55 56.1257 43.55 56.1302 43.55 56.1346C43.55 56.139 43.55 56.1434 43.55 56.1478C43.55 56.1523 43.55 56.1567 43.55 56.1611C43.55 56.1655 43.55 56.1699 43.55 56.1743C43.55 56.1787 43.55 56.1831 43.55 56.1875C43.55 56.1919 43.55 56.1963 43.55 56.2007C43.55 56.2051 43.55 56.2094 43.55 56.2138C43.55 56.2182 43.55 56.2226 43.55 56.2269C43.55 56.2313 43.55 56.2357 43.55 56.2401C43.55 56.2444 43.55 56.2488 43.55 56.2531C43.55 56.2575 43.55 56.2618 43.55 56.2662C43.55 56.2705 43.55 56.2749 43.55 56.2792C43.55 56.2836 43.55 56.2879 43.55 56.2922C43.55 56.2966 43.55 56.3009 43.55 56.3052C43.55 56.3095 43.55 56.3139 43.55 56.3182C43.55 56.3225 43.55 56.3268 43.55 56.3311C43.55 56.3354 43.55 56.3397 43.55 56.344C43.55 56.3483 43.55 56.3526 43.55 56.3569C43.55 56.3612 43.55 56.3655 43.55 56.3698C43.55 56.3741 43.55 56.3784 43.55 56.3826C43.55 56.3869 43.55 56.3912 43.55 56.3955C43.55 56.3997 43.55 56.404 43.55 56.4083C43.55 56.4125 43.55 56.4168 43.55 56.421C43.55 56.4253 43.55 56.4295 43.55 56.4338C43.55 56.438 43.55 56.4423 43.55 56.4465C43.55 56.4508 43.55 56.455 43.55 56.4592C43.55 56.4634 43.55 56.4677 43.55 56.4719C43.55 56.4761 43.55 56.4803 43.55 56.4845C43.55 56.4888 43.55 56.493 43.55 56.4972C43.55 56.5014 43.55 56.5056 43.55 56.5098C43.55 56.514 43.55 56.5182 43.55 56.5224C43.55 56.5266 43.55 56.5307 43.55 56.5349C43.55 56.5391 43.55 56.5433 43.55 56.5475C43.55 56.5516 43.55 56.5558 43.55 56.56C43.55 56.5641 43.55 56.5683 43.55 56.5724C43.55 56.5766 43.55 56.5807 43.55 56.5849C43.55 56.589 43.55 56.5932 43.55 56.5973C43.55 56.6015 43.55 56.6056 43.55 56.6097C43.55 56.6139 43.55 56.618 43.55 56.6221C43.55 56.6262 43.55 56.6304 43.55 56.6345C43.55 56.6386 43.55 56.6427 43.55 56.6468C43.55 56.6509 43.55 56.655 43.55 56.6591C43.55 56.6632 43.55 56.6673 43.55 56.6714C43.55 56.6755 43.55 56.6796 43.55 56.6837C43.55 56.6877 43.55 56.6918 43.55 56.6959C43.55 56.7 43.55 56.704 43.55 56.7081C43.55 56.7122 43.55 56.7162 43.55 56.7203C43.55 56.7243 43.55 56.7284 43.55 56.7324C43.55 56.7365 43.55 56.7405 43.55 56.7446C43.55 56.7486 43.55 56.7527 43.55 56.7567C43.55 56.7607 43.55 56.7647 43.55 56.7688C43.55 56.7728 43.55 56.7768 43.55 56.7808C43.55 56.7848 43.55 56.7888 43.55 56.7928C43.55 56.7969 43.55 56.8009 43.55 56.8049C43.55 56.8088 43.55 56.8128 43.55 56.8168C43.55 56.8208 43.55 56.8248 43.55 56.8288C43.55 56.8328 43.55 56.8367 43.55 56.8407C43.55 56.8447 43.55 56.8486 43.55 56.8526C43.55 56.8566 43.55 56.8605 43.55 56.8645C43.55 56.8684 43.55 56.8724 43.55 56.8763C43.55 56.8803 43.55 56.8842 43.55 56.8881C43.55 56.8921 43.55 56.896 43.55 56.8999C43.55 56.9039 43.55 56.9078 43.55 56.9117C43.55 56.9156 43.55 56.9195 43.55 56.9235C43.55 56.9274 43.55 56.9313 43.55 56.9352C43.55 56.9391 43.55 56.943 43.55 56.9469C43.55 56.9508 43.55 56.9546 43.55 56.9585C43.55 56.9624 43.55 56.9663 43.55 56.9702C43.55 56.974 43.55 56.9779 43.55 56.9818C43.55 56.9856 43.55 56.9895 43.55 56.9934C43.55 56.9972 43.55 57.0011 43.55 57.0049C43.55 57.0088 43.55 57.0126 43.55 57.0164C43.55 57.0203 43.55 57.0241 43.55 57.0279C43.55 57.0318 43.55 57.0356 43.55 57.0394C43.55 57.0432 43.55 57.0471 43.55 57.0509C43.55 57.0547 43.55 57.0585 43.55 57.0623C43.55 57.0661 43.55 57.0699 43.55 57.0737C43.55 57.0775 43.55 57.0813 43.55 57.0851C43.55 57.0888 43.55 57.0926 43.55 57.0964C43.55 57.1002 43.55 57.1039 43.55 57.1077C43.55 57.1115 43.55 57.1152 43.55 57.119C43.55 57.1227 43.55 57.1265 43.55 57.1303C43.55 57.134 43.55 57.1377 43.55 57.1415C43.55 57.1452 43.55 57.149 43.55 57.1527C43.55 57.1564 43.55 57.1601 43.55 57.1639C43.55 57.1676 43.55 57.1713 43.55 57.175C43.55 57.1787 43.55 57.1824 43.55 57.1861C43.55 57.1898 43.55 57.1935 43.55 57.1972C43.55 57.2009 43.55 57.2046 43.55 57.2083C43.55 57.212 43.55 57.2156 43.55 57.2193C43.55 57.223 43.55 57.2267 43.55 57.2303C43.55 57.234 43.55 57.2377 43.55 57.2413C43.55 57.245 43.55 57.2486 43.55 57.2523C43.55 57.2559 43.55 57.2596 43.55 57.2632C43.55 57.2668 43.55 57.2705 43.55 57.2741C43.55 57.2777 43.55 57.2813 43.55 57.285C43.55 57.2886 43.55 57.2922 43.55 57.2958C43.55 57.2994 43.55 57.303 43.55 57.3066C43.55 57.3102 43.55 57.3138 43.55 57.3174C43.55 57.321 43.55 57.3246 43.55 57.3281C43.55 57.3317 43.55 57.3353 43.55 57.3389C43.55 57.3424 43.55 57.346 43.55 57.3496C43.55 57.3531 43.55 57.3567 43.55 57.3602C43.55 57.3638 43.55 57.3673 43.55 57.3709C43.55 57.3744 43.55 57.378 43.55 57.3815C43.55 57.385 43.55 57.3885 43.55 57.3921C43.55 57.3956 43.55 57.3991 43.55 57.4026C43.55 57.4061 43.55 57.4096 43.55 57.4131C43.55 57.4166 43.55 57.4201 43.55 57.4236C43.55 57.4271 43.55 57.4306 43.55 57.4341C43.55 57.4376 43.55 57.4411 43.55 57.4445C43.55 57.448 43.55 57.4515 43.55 57.455C43.55 57.4584 43.55 57.4619 43.55 57.4653C43.55 57.4688 43.55 57.4722 43.55 57.4757C43.55 57.4791 43.55 57.4826 43.55 57.486C43.55 57.4894 43.55 57.4929 43.55 57.4963C43.55 57.4997 43.55 57.5031 43.55 57.5066C43.55 57.51 43.55 57.5134 43.55 57.5168C43.55 57.5202 43.55 57.5236 43.55 57.527C43.55 57.5304 43.55 57.5338 43.55 57.5372C43.55 57.5405 43.55 57.5439 43.55 57.5473C43.55 57.5507 43.55 57.554 43.55 57.5574C43.55 57.5608 43.55 57.5641 43.55 57.5675C43.55 57.5709 43.55 57.5742 43.55 57.5775C43.55 57.5809 43.55 57.5842 43.55 57.5876C43.55 57.5909 43.55 57.5942 43.55 57.5976C43.55 57.6009 43.55 57.6042 43.55 57.6075C43.55 57.6108 43.55 57.6142 43.55 57.6175C43.55 57.6208 43.55 57.6241 43.55 57.6274C43.55 57.6307 43.55 57.6339 43.55 57.6372C43.55 57.6405 43.55 57.6438 43.55 57.6471C43.55 57.6504 43.55 57.6536 43.55 57.6569C43.55 57.6602 43.55 57.6634 43.55 57.6667C43.55 57.6699 43.55 57.6732 43.55 57.6764C43.55 57.6797 43.55 57.6829 43.55 57.6861C43.55 57.6894 43.55 57.6926 43.55 57.6958C43.55 57.6991 43.55 57.7023 43.55 57.7055C43.55 57.7087 43.55 57.7119 43.55 57.7151C43.55 57.7183 43.55 57.7215 43.55 57.7247C43.55 57.7279 43.55 57.7311 43.55 57.7343C43.55 57.7375 43.55 57.7406 43.55 57.7438C43.55 57.747 43.55 57.7502 43.55 57.7533C43.55 57.7565 43.55 57.7596 43.55 57.7628C43.55 57.7659 43.55 57.7691 43.55 57.7722C43.55 57.7754 43.55 57.7785 43.55 57.7816C43.55 57.7848 43.55 57.7879 43.55 57.791C43.55 57.7941 43.55 57.7973 43.55 57.8004C43.55 57.8035 43.55 57.8066 43.55 57.8097C43.55 57.8128 43.55 57.8159 43.55 57.819C43.55 57.8221 43.55 57.8251 43.55 57.8282C43.55 57.8313 43.55 57.8344 43.55 57.8374C43.55 57.8405 43.55 57.8436 43.55 57.8466C43.55 57.8497 43.55 57.8527 43.55 57.8558C43.55 57.8588 43.55 57.8619 43.55 57.8649C43.55 57.868 43.55 57.871 43.55 57.874C43.55 57.877 43.55 57.8801 43.55 57.8831C43.55 57.8861 43.55 57.8891 43.55 57.8921C43.55 57.8951 43.55 57.8981 43.55 57.9011C43.55 57.9041 43.55 57.9071 43.55 57.9101C43.55 57.9131 43.55 57.916 43.55 57.919C43.55 57.922 43.55 57.925 43.55 57.9279C43.55 57.9309 43.55 57.9338 43.55 57.9368C43.55 57.9397 43.55 57.9427 43.55 57.9456C43.55 57.9486 43.55 57.9515 43.55 57.9544C43.55 57.9574 43.55 57.9603 43.55 57.9632C43.55 57.9661 43.55 57.9691 43.55 57.972C43.55 57.9749 43.55 57.9778 43.55 57.9807C43.55 57.9836 43.55 57.9865 43.55 57.9893C43.55 57.9922 43.55 57.9951 43.55 57.998C43.55 58.0009 43.55 58.0037 43.55 58.0066C43.55 58.0095 43.55 58.0123 43.55 58.0152C43.55 58.018 43.55 58.0209 43.55 58.0237C43.55 58.0266 43.55 58.0294 43.55 58.0322C43.55 58.0351 43.55 58.0379 43.55 58.0407C43.55 58.0435 43.55 58.0464 43.55 58.0492C43.55 58.052 43.55 58.0548 43.55 58.0576C43.55 58.0604 43.55 58.0632 43.55 58.066C43.55 58.0688 43.55 58.0715 43.55 58.0743C43.55 58.0771 43.55 58.0799 43.55 58.0826C43.55 58.0854 43.55 58.0882 43.55 58.0909C43.55 58.0937 43.55 58.0964 43.55 58.0992C43.55 58.1019 43.55 58.1046 43.55 58.1074C43.55 58.1101 43.55 58.1128 43.55 58.1156C43.55 58.1183 43.55 58.121 43.55 58.1237C43.55 58.1264 43.55 58.1291 43.55 58.1318C43.55 58.1345 43.55 58.1372 43.55 58.1399C43.55 58.1426 43.55 58.1453 43.55 58.148C43.55 58.1506 43.55 58.1533 43.55 58.156C43.55 58.1586 43.55 58.1613 43.55 58.1639C43.55 58.1666 43.55 58.1692 43.55 58.1719C43.55 58.1745 43.55 58.1772 43.55 58.1798C43.55 58.1824 43.55 58.1851 43.55 58.1877C43.55 58.1903 43.55 58.1929 43.55 58.1955C43.55 58.1981 43.55 58.2007 43.55 58.2033C43.55 58.2059 43.55 58.2085 43.55 58.2111C43.55 58.2137 43.55 58.2163 43.55 58.2189C43.55 58.2214 43.55 58.224 43.55 58.2266C43.55 58.2291 43.55 58.2317 43.55 58.2342C43.55 58.2368 43.55 58.2393 43.55 58.2419C43.55 58.2444 43.55 58.247 43.55 58.2495C43.55 58.252 43.55 58.2545 43.55 58.257C43.55 58.2596 43.55 58.2621 43.55 58.2646C43.55 58.2671 43.55 58.2696 43.55 58.2721C43.55 58.2746 43.55 58.2771 43.55 58.2796C43.55 58.282 43.55 58.2845 43.55 58.287C43.55 58.2895 43.55 58.2919 43.55 58.2944C43.55 58.2968 43.55 58.2993 43.55 58.3017C43.55 58.3042 43.55 58.3066 43.55 58.3091C43.55 58.3115 43.55 58.3139 43.55 58.3164C43.55 58.3188 43.55 58.3212 43.55 58.3236C43.55 58.326 43.55 58.3284 43.55 58.3308C43.55 58.3332 43.55 58.3356 43.55 58.338C43.55 58.3404 43.55 58.3428 43.55 58.3452C43.55 58.3476 43.55 58.3499 43.55 58.3523C43.55 58.3547 43.55 58.357 43.55 58.3594C43.55 58.3617 43.55 58.3641 43.55 58.3664C43.55 58.3688 43.55 58.3711 43.55 58.3734C43.55 58.3758 43.55 58.3781 43.55 58.3804C43.55 58.3827 43.55 58.385 43.55 58.3873C43.55 58.3896 43.55 58.3919 43.55 58.3942C43.55 58.3965 43.55 58.3988 43.55 58.4011C43.55 58.4034 43.55 58.4057 43.55 58.4079C43.55 58.4102 43.55 58.4125 43.55 58.4147C43.55 58.417 43.55 58.4192 43.55 58.4215C43.55 58.4237 43.55 58.426 43.55 58.4282C43.55 58.4305 43.55 58.4327 43.55 58.4349C43.55 58.4371 43.55 58.4393 43.55 58.4416C43.55 58.4438 43.55 58.446 43.55 58.4482C43.55 58.4504 43.55 58.4526 43.55 58.4548C43.55 58.4569 43.55 58.4591 43.55 58.4613C43.55 58.4635 43.55 58.4656 43.55 58.4678C43.55 58.47 43.55 58.4721 43.55 58.4743C43.55 58.4764 43.55 58.4786 43.55 58.4807C43.55 58.4828 43.55 58.485 43.55 58.4871C43.55 58.4892 43.55 58.4914 43.55 58.4935C43.55 58.4956 43.55 58.4977 43.55 58.4998C43.55 58.5019 43.55 58.504 43.55 58.5061C43.55 58.5082 43.55 58.5103 43.55 58.5123C43.55 58.5144 43.55 58.5165 43.55 58.5185C43.55 58.5206 43.55 58.5227 43.55 58.5247C43.55 58.5268 43.55 58.5288 43.55 58.5309C43.55 58.5329 43.55 58.5349 43.55 58.537C43.55 58.539 43.55 58.541 43.55 58.543C43.55 58.545 43.55 58.5471 43.55 58.5491C43.55 58.5511 43.55 58.5531 43.55 58.5551C43.55 58.557 43.55 58.559 43.55 58.561C43.55 58.563 43.55 58.565 43.55 58.5669C43.55 58.5689 43.55 58.5709 43.55 58.5728C43.55 58.5748 43.55 58.5767 43.55 58.5787C43.55 58.5806 43.55 58.5825 43.55 58.5845C43.55 58.5864 43.55 58.5883 43.55 58.5902C43.55 58.5921 43.55 58.5941 43.55 58.596C43.55 58.5979 43.55 58.5998 43.55 58.6016C43.55 58.6035 43.55 58.6054 43.55 58.6073C43.55 58.6092 43.55 58.6111 43.55 58.6129C43.55 58.6148 43.55 58.6166 43.55 58.6185C43.55 58.6204 43.55 58.6222 43.55 58.624C43.55 58.6259 43.55 58.6277 43.55 58.6295C43.55 58.6314 43.55 58.6332 43.55 58.635C43.55 58.6368 43.55 58.6386 43.55 58.6404C43.55 58.6422 43.55 58.644 43.55 58.6458C43.55 58.6476 43.55 58.6494 43.55 58.6512C43.55 58.653 43.55 58.6547 43.55 58.6565C43.55 58.6583 43.55 58.66 43.55 58.6618C43.55 58.6635 43.55 58.6653 43.55 58.667C43.55 58.6688 43.55 58.6705 43.55 58.6722C43.55 58.6739 43.55 58.6757 43.55 58.6774C43.55 58.6791 43.55 58.6808 43.55 58.6825C43.55 58.6842 43.55 58.6859 43.55 58.6876C43.55 58.6893 43.55 58.6909 43.55 58.6926C43.55 58.6943 43.55 58.696 43.55 58.6976C43.55 58.6993 43.55 58.7009 43.55 58.7026C43.55 58.7042 43.55 58.7059 43.55 58.7075C43.55 58.7092 43.55 58.7108 43.55 58.7124C43.55 58.714 43.55 58.7157 43.55 58.7173C43.55 58.7189 43.55 58.7205 43.55 58.7221C43.55 58.7237 43.55 58.7253 43.55 58.7268C43.55 58.7284 43.55 58.73 43.55 58.7316C43.55 58.7332 43.55 58.7347 43.55 58.7363C43.55 58.7378 43.55 58.7394 43.55 58.7409C43.55 58.7425 43.55 58.744 43.55 58.7455C43.55 58.7471 43.55 58.7486 43.55 58.7501C43.55 58.7516 43.55 58.7532 43.55 58.7547C43.55 58.7562 43.55 58.7577 43.55 58.7592C43.55 58.7607 43.55 58.7621 43.55 58.7636C43.55 58.7651 43.55 58.7666 43.55 58.768C43.55 58.7695 43.55 58.771 43.55 58.7724C43.55 58.7739 43.55 58.7753 43.55 58.7768C43.55 58.7782 43.55 58.7796 43.55 58.7811C43.55 58.7825 43.55 58.7839 43.55 58.7853C43.55 58.7867 43.55 58.7881 43.55 58.7895C43.55 58.7909 43.55 58.7923 43.55 58.7937C43.55 58.7951 43.55 58.7965 43.55 58.7979C43.55 58.7992 43.55 58.8006 43.55 58.802C43.55 58.8033 43.55 58.8047 43.55 58.806C43.55 58.8074 43.55 58.8087 43.55 58.81C43.55 58.8114 43.55 58.8127 43.55 58.814C43.55 58.8153 43.55 58.8166 43.55 58.8179C43.55 58.8193 43.55 58.8206 43.55 58.8218C43.55 58.8231 43.55 58.8244 43.55 58.8257C43.55 58.827 43.55 58.8283 43.55 58.8295C43.55 58.8308 43.55 58.832 43.55 58.8333C43.55 58.8346 43.55 58.8358 43.55 58.837C43.55 58.8383 43.55 58.8395 43.55 58.8407C43.55 58.842 43.55 58.8432 43.55 58.8444C43.55 58.8456 43.55 58.8468 43.55 58.848C43.55 58.8492 43.55 58.8504 43.55 58.8516C43.55 58.8528 43.55 58.8539 43.55 58.8551C43.55 58.8563 43.55 58.8574 43.55 58.8586C43.55 58.8598 43.55 58.8609 43.55 58.8621C43.55 58.8632 43.55 58.8643 43.55 58.8655C43.55 58.8666 43.55 58.8677 43.55 58.8688C43.55 58.8699 43.55 58.8711 43.55 58.8722C43.55 58.8733 43.55 58.8744 43.55 58.8754C43.55 58.8765 43.55 58.8776 43.55 58.8787C43.55 58.8798 43.55 58.8808 43.55 58.8819C43.55 58.883 43.55 58.884 43.55 58.8851C43.55 58.8861 43.55 58.8871 43.55 58.8882C43.55 58.8892 43.55 58.8902 43.55 58.8913C43.55 58.8923 43.55 58.8933 43.55 58.8943C43.55 58.8953 43.55 58.8963 43.55 58.8973C43.55 58.8983 43.55 58.8993 43.55 58.9002C43.55 58.9012 43.55 58.9022 43.55 58.9032C43.55 58.9041 43.55 58.9051 43.55 58.906C43.55 58.907 43.55 58.9079 43.55 58.9089C43.55 58.9098 43.55 58.9107 43.55 58.9116C43.55 58.9126 43.55 58.9135 43.55 58.9144C43.55 58.9153 43.55 58.9162 43.55 58.9171C43.55 58.918 43.55 58.9189 43.55 58.9197C43.55 58.9206 43.55 58.9215 43.55 58.9224C43.55 58.9232 43.55 58.9241 43.55 58.9249C43.55 58.9258 43.55 58.9266 43.55 58.9275C43.55 58.9283 43.55 58.9291 43.55 58.93C43.55 58.9308 43.55 58.9316 43.55 58.9324C43.55 58.9332 43.55 58.934 43.55 58.9348C43.55 58.9356 43.55 58.9364 43.55 58.9372C43.55 58.938 43.55 58.9387 43.55 58.9395C43.55 58.9403 43.55 58.941 43.55 58.9418C43.55 58.9425 43.55 58.9433 43.55 58.944C43.55 58.9448 43.55 58.9455 43.55 58.9462C43.55 58.9469 43.55 58.9477 43.55 58.9484C43.55 58.9491 43.55 58.9498 43.55 58.9505C43.55 58.9512 43.55 58.9519 43.55 58.9525C43.55 58.9532 43.55 58.9539 43.55 58.9546C43.55 58.9552 43.55 58.9559 43.55 58.9565C43.55 58.9572 43.55 58.9578 43.55 58.9585C43.55 58.9591 43.55 58.9597 43.55 58.9604C43.55 58.961 43.55 58.9616 43.55 58.9622C43.55 58.9628 43.55 58.9634 43.55 58.964C43.55 58.9646 43.55 58.9652 43.55 58.9658C43.55 58.9664 43.55 58.9669 43.55 58.9675C43.55 58.9681 43.55 58.9686 43.55 58.9692C43.55 58.9697 43.55 58.9703 43.55 58.9708C43.55 58.9713 43.55 58.9719 43.55 58.9724C43.55 58.9729 43.55 58.9734 43.55 58.9739C43.55 58.9744 43.55 58.9749 43.55 58.9754C43.55 58.9759 43.55 58.9764 43.55 58.9769C43.55 58.9774 43.55 58.9778 43.55 58.9783C43.55 58.9788 43.55 58.9792 43.55 58.9797C43.55 58.9801 43.55 58.9806 43.55 58.981C43.55 58.9814 43.55 58.9819 43.55 58.9823C43.55 58.9827 43.55 58.9831 43.55 58.9835C43.55 58.9839 43.55 58.9843 43.55 58.9847C43.55 58.9851 43.55 58.9855 43.55 58.9859C43.55 58.9862 43.55 58.9866 43.55 58.987C43.55 58.9873 43.55 58.9877 43.55 58.988C43.55 58.9884 43.55 58.9887 43.55 58.989C43.55 58.9894 43.55 58.9897 43.55 58.99C43.55 58.9903 43.55 58.9906 43.55 58.9909C43.55 58.9912 43.55 58.9915 43.55 58.9918C43.55 58.9921 43.55 58.9924 43.55 58.9926C43.55 58.9929 43.55 58.9932 43.55 58.9934C43.55 58.9937 43.55 58.9939 43.55 58.9942C43.55 58.9944 43.55 58.9947 43.55 58.9949C43.55 58.9951 43.55 58.9953 43.55 58.9955C43.55 58.9958 43.55 58.996 43.55 58.9962C43.55 58.9964 43.55 58.9965 43.55 58.9967C43.55 58.9969 43.55 58.9971 43.55 58.9972C43.55 58.9974 43.55 58.9976 43.55 58.9977C43.55 58.9979 43.55 58.998 43.55 58.9982C43.55 58.9983 43.55 58.9984 43.55 58.9985C43.55 58.9987 43.55 58.9988 43.55 58.9989C43.55 58.999 43.55 58.9991 43.55 58.9992C43.55 58.9993 43.55 58.9994 43.55 58.9994C43.55 58.9995 43.55 58.9996 43.55 58.9996C43.55 58.9997 43.55 58.9997 43.55 58.9998C43.55 58.9998 43.55 58.9999 43.55 58.9999C43.55 58.9999 43.55 59 43.55 59C43.55 59 43.55 59 44.55 59C45.55 59 45.55 59 45.55 59C45.55 59 45.55 58.9999 45.55 58.9999C45.55 58.9999 45.55 58.9998 45.55 58.9998C45.55 58.9997 45.55 58.9997 45.55 58.9996C45.55 58.9996 45.55 58.9995 45.55 58.9994C45.55 58.9994 45.55 58.9993 45.55 58.9992C45.55 58.9991 45.55 58.999 45.55 58.9989C45.55 58.9988 45.55 58.9987 45.55 58.9985C45.55 58.9984 45.55 58.9983 45.55 58.9982C45.55 58.998 45.55 58.9979 45.55 58.9977C45.55 58.9976 45.55 58.9974 45.55 58.9972C45.55 58.9971 45.55 58.9969 45.55 58.9967C45.55 58.9965 45.55 58.9964 45.55 58.9962C45.55 58.996 45.55 58.9958 45.55 58.9955C45.55 58.9953 45.55 58.9951 45.55 58.9949C45.55 58.9947 45.55 58.9944 45.55 58.9942C45.55 58.9939 45.55 58.9937 45.55 58.9934C45.55 58.9932 45.55 58.9929 45.55 58.9926C45.55 58.9924 45.55 58.9921 45.55 58.9918C45.55 58.9915 45.55 58.9912 45.55 58.9909C45.55 58.9906 45.55 58.9903 45.55 58.99C45.55 58.9897 45.55 58.9894 45.55 58.989C45.55 58.9887 45.55 58.9884 45.55 58.988C45.55 58.9877 45.55 58.9873 45.55 58.987C45.55 58.9866 45.55 58.9862 45.55 58.9859C45.55 58.9855 45.55 58.9851 45.55 58.9847C45.55 58.9843 45.55 58.9839 45.55 58.9835C45.55 58.9831 45.55 58.9827 45.55 58.9823C45.55 58.9819 45.55 58.9814 45.55 58.981C45.55 58.9806 45.55 58.9801 45.55 58.9797C45.55 58.9792 45.55 58.9788 45.55 58.9783C45.55 58.9778 45.55 58.9774 45.55 58.9769C45.55 58.9764 45.55 58.9759 45.55 58.9754C45.55 58.9749 45.55 58.9744 45.55 58.9739C45.55 58.9734 45.55 58.9729 45.55 58.9724C45.55 58.9719 45.55 58.9713 45.55 58.9708C45.55 58.9703 45.55 58.9697 45.55 58.9692C45.55 58.9686 45.55 58.9681 45.55 58.9675C45.55 58.9669 45.55 58.9664 45.55 58.9658C45.55 58.9652 45.55 58.9646 45.55 58.964C45.55 58.9634 45.55 58.9628 45.55 58.9622C45.55 58.9616 45.55 58.961 45.55 58.9604C45.55 58.9597 45.55 58.9591 45.55 58.9585C45.55 58.9578 45.55 58.9572 45.55 58.9565C45.55 58.9559 45.55 58.9552 45.55 58.9546C45.55 58.9539 45.55 58.9532 45.55 58.9525C45.55 58.9519 45.55 58.9512 45.55 58.9505C45.55 58.9498 45.55 58.9491 45.55 58.9484C45.55 58.9477 45.55 58.9469 45.55 58.9462C45.55 58.9455 45.55 58.9448 45.55 58.944C45.55 58.9433 45.55 58.9425 45.55 58.9418C45.55 58.941 45.55 58.9403 45.55 58.9395C45.55 58.9387 45.55 58.938 45.55 58.9372C45.55 58.9364 45.55 58.9356 45.55 58.9348C45.55 58.934 45.55 58.9332 45.55 58.9324C45.55 58.9316 45.55 58.9308 45.55 58.93C45.55 58.9291 45.55 58.9283 45.55 58.9275C45.55 58.9266 45.55 58.9258 45.55 58.9249C45.55 58.9241 45.55 58.9232 45.55 58.9224C45.55 58.9215 45.55 58.9206 45.55 58.9197C45.55 58.9189 45.55 58.918 45.55 58.9171C45.55 58.9162 45.55 58.9153 45.55 58.9144C45.55 58.9135 45.55 58.9126 45.55 58.9116C45.55 58.9107 45.55 58.9098 45.55 58.9089C45.55 58.9079 45.55 58.907 45.55 58.906C45.55 58.9051 45.55 58.9041 45.55 58.9032C45.55 58.9022 45.55 58.9012 45.55 58.9002C45.55 58.8993 45.55 58.8983 45.55 58.8973C45.55 58.8963 45.55 58.8953 45.55 58.8943C45.55 58.8933 45.55 58.8923 45.55 58.8913C45.55 58.8902 45.55 58.8892 45.55 58.8882C45.55 58.8871 45.55 58.8861 45.55 58.8851C45.55 58.884 45.55 58.883 45.55 58.8819C45.55 58.8808 45.55 58.8798 45.55 58.8787C45.55 58.8776 45.55 58.8765 45.55 58.8754C45.55 58.8744 45.55 58.8733 45.55 58.8722C45.55 58.8711 45.55 58.8699 45.55 58.8688C45.55 58.8677 45.55 58.8666 45.55 58.8655C45.55 58.8643 45.55 58.8632 45.55 58.8621C45.55 58.8609 45.55 58.8598 45.55 58.8586C45.55 58.8574 45.55 58.8563 45.55 58.8551C45.55 58.8539 45.55 58.8528 45.55 58.8516C45.55 58.8504 45.55 58.8492 45.55 58.848C45.55 58.8468 45.55 58.8456 45.55 58.8444C45.55 58.8432 45.55 58.842 45.55 58.8407C45.55 58.8395 45.55 58.8383 45.55 58.837C45.55 58.8358 45.55 58.8346 45.55 58.8333C45.55 58.832 45.55 58.8308 45.55 58.8295C45.55 58.8283 45.55 58.827 45.55 58.8257C45.55 58.8244 45.55 58.8231 45.55 58.8218C45.55 58.8206 45.55 58.8193 45.55 58.8179C45.55 58.8166 45.55 58.8153 45.55 58.814C45.55 58.8127 45.55 58.8114 45.55 58.81C45.55 58.8087 45.55 58.8074 45.55 58.806C45.55 58.8047 45.55 58.8033 45.55 58.802C45.55 58.8006 45.55 58.7992 45.55 58.7979C45.55 58.7965 45.55 58.7951 45.55 58.7937C45.55 58.7923 45.55 58.7909 45.55 58.7895C45.55 58.7881 45.55 58.7867 45.55 58.7853C45.55 58.7839 45.55 58.7825 45.55 58.7811C45.55 58.7796 45.55 58.7782 45.55 58.7768C45.55 58.7753 45.55 58.7739 45.55 58.7724C45.55 58.771 45.55 58.7695 45.55 58.768C45.55 58.7666 45.55 58.7651 45.55 58.7636C45.55 58.7621 45.55 58.7607 45.55 58.7592C45.55 58.7577 45.55 58.7562 45.55 58.7547C45.55 58.7532 45.55 58.7516 45.55 58.7501C45.55 58.7486 45.55 58.7471 45.55 58.7455C45.55 58.744 45.55 58.7425 45.55 58.7409C45.55 58.7394 45.55 58.7378 45.55 58.7363C45.55 58.7347 45.55 58.7332 45.55 58.7316C45.55 58.73 45.55 58.7284 45.55 58.7268C45.55 58.7253 45.55 58.7237 45.55 58.7221C45.55 58.7205 45.55 58.7189 45.55 58.7173C45.55 58.7157 45.55 58.714 45.55 58.7124C45.55 58.7108 45.55 58.7092 45.55 58.7075C45.55 58.7059 45.55 58.7042 45.55 58.7026C45.55 58.7009 45.55 58.6993 45.55 58.6976C45.55 58.696 45.55 58.6943 45.55 58.6926C45.55 58.6909 45.55 58.6893 45.55 58.6876C45.55 58.6859 45.55 58.6842 45.55 58.6825C45.55 58.6808 45.55 58.6791 45.55 58.6774C45.55 58.6757 45.55 58.6739 45.55 58.6722C45.55 58.6705 45.55 58.6688 45.55 58.667C45.55 58.6653 45.55 58.6635 45.55 58.6618C45.55 58.66 45.55 58.6583 45.55 58.6565C45.55 58.6547 45.55 58.653 45.55 58.6512C45.55 58.6494 45.55 58.6476 45.55 58.6458C45.55 58.644 45.55 58.6422 45.55 58.6404C45.55 58.6386 45.55 58.6368 45.55 58.635C45.55 58.6332 45.55 58.6314 45.55 58.6295C45.55 58.6277 45.55 58.6259 45.55 58.624C45.55 58.6222 45.55 58.6204 45.55 58.6185C45.55 58.6166 45.55 58.6148 45.55 58.6129C45.55 58.6111 45.55 58.6092 45.55 58.6073C45.55 58.6054 45.55 58.6035 45.55 58.6016C45.55 58.5998 45.55 58.5979 45.55 58.596C45.55 58.5941 45.55 58.5921 45.55 58.5902C45.55 58.5883 45.55 58.5864 45.55 58.5845C45.55 58.5825 45.55 58.5806 45.55 58.5787C45.55 58.5767 45.55 58.5748 45.55 58.5728C45.55 58.5709 45.55 58.5689 45.55 58.5669C45.55 58.565 45.55 58.563 45.55 58.561C45.55 58.559 45.55 58.557 45.55 58.5551C45.55 58.5531 45.55 58.5511 45.55 58.5491C45.55 58.5471 45.55 58.545 45.55 58.543C45.55 58.541 45.55 58.539 45.55 58.537C45.55 58.5349 45.55 58.5329 45.55 58.5309C45.55 58.5288 45.55 58.5268 45.55 58.5247C45.55 58.5227 45.55 58.5206 45.55 58.5185C45.55 58.5165 45.55 58.5144 45.55 58.5123C45.55 58.5103 45.55 58.5082 45.55 58.5061C45.55 58.504 45.55 58.5019 45.55 58.4998C45.55 58.4977 45.55 58.4956 45.55 58.4935C45.55 58.4914 45.55 58.4892 45.55 58.4871C45.55 58.485 45.55 58.4828 45.55 58.4807C45.55 58.4786 45.55 58.4764 45.55 58.4743C45.55 58.4721 45.55 58.47 45.55 58.4678C45.55 58.4656 45.55 58.4635 45.55 58.4613C45.55 58.4591 45.55 58.4569 45.55 58.4548C45.55 58.4526 45.55 58.4504 45.55 58.4482C45.55 58.446 45.55 58.4438 45.55 58.4416C45.55 58.4393 45.55 58.4371 45.55 58.4349C45.55 58.4327 45.55 58.4305 45.55 58.4282C45.55 58.426 45.55 58.4237 45.55 58.4215C45.55 58.4192 45.55 58.417 45.55 58.4147C45.55 58.4125 45.55 58.4102 45.55 58.4079C45.55 58.4057 45.55 58.4034 45.55 58.4011C45.55 58.3988 45.55 58.3965 45.55 58.3942C45.55 58.3919 45.55 58.3896 45.55 58.3873C45.55 58.385 45.55 58.3827 45.55 58.3804C45.55 58.3781 45.55 58.3758 45.55 58.3734C45.55 58.3711 45.55 58.3688 45.55 58.3664C45.55 58.3641 45.55 58.3617 45.55 58.3594C45.55 58.357 45.55 58.3547 45.55 58.3523C45.55 58.3499 45.55 58.3476 45.55 58.3452C45.55 58.3428 45.55 58.3404 45.55 58.338C45.55 58.3356 45.55 58.3332 45.55 58.3308C45.55 58.3284 45.55 58.326 45.55 58.3236C45.55 58.3212 45.55 58.3188 45.55 58.3164C45.55 58.3139 45.55 58.3115 45.55 58.3091C45.55 58.3066 45.55 58.3042 45.55 58.3017C45.55 58.2993 45.55 58.2968 45.55 58.2944C45.55 58.2919 45.55 58.2895 45.55 58.287C45.55 58.2845 45.55 58.282 45.55 58.2796C45.55 58.2771 45.55 58.2746 45.55 58.2721C45.55 58.2696 45.55 58.2671 45.55 58.2646C45.55 58.2621 45.55 58.2596 45.55 58.257C45.55 58.2545 45.55 58.252 45.55 58.2495C45.55 58.247 45.55 58.2444 45.55 58.2419C45.55 58.2393 45.55 58.2368 45.55 58.2342C45.55 58.2317 45.55 58.2291 45.55 58.2266C45.55 58.224 45.55 58.2214 45.55 58.2189C45.55 58.2163 45.55 58.2137 45.55 58.2111C45.55 58.2085 45.55 58.2059 45.55 58.2033C45.55 58.2007 45.55 58.1981 45.55 58.1955C45.55 58.1929 45.55 58.1903 45.55 58.1877C45.55 58.1851 45.55 58.1824 45.55 58.1798C45.55 58.1772 45.55 58.1745 45.55 58.1719C45.55 58.1692 45.55 58.1666 45.55 58.1639C45.55 58.1613 45.55 58.1586 45.55 58.156C45.55 58.1533 45.55 58.1506 45.55 58.148C45.55 58.1453 45.55 58.1426 45.55 58.1399C45.55 58.1372 45.55 58.1345 45.55 58.1318C45.55 58.1291 45.55 58.1264 45.55 58.1237C45.55 58.121 45.55 58.1183 45.55 58.1156C45.55 58.1128 45.55 58.1101 45.55 58.1074C45.55 58.1046 45.55 58.1019 45.55 58.0992C45.55 58.0964 45.55 58.0937 45.55 58.0909C45.55 58.0882 45.55 58.0854 45.55 58.0826C45.55 58.0799 45.55 58.0771 45.55 58.0743C45.55 58.0715 45.55 58.0688 45.55 58.066C45.55 58.0632 45.55 58.0604 45.55 58.0576C45.55 58.0548 45.55 58.052 45.55 58.0492C45.55 58.0464 45.55 58.0435 45.55 58.0407C45.55 58.0379 45.55 58.0351 45.55 58.0322C45.55 58.0294 45.55 58.0266 45.55 58.0237C45.55 58.0209 45.55 58.018 45.55 58.0152C45.55 58.0123 45.55 58.0095 45.55 58.0066C45.55 58.0037 45.55 58.0009 45.55 57.998C45.55 57.9951 45.55 57.9922 45.55 57.9893C45.55 57.9865 45.55 57.9836 45.55 57.9807C45.55 57.9778 45.55 57.9749 45.55 57.972C45.55 57.9691 45.55 57.9661 45.55 57.9632C45.55 57.9603 45.55 57.9574 45.55 57.9544C45.55 57.9515 45.55 57.9486 45.55 57.9456C45.55 57.9427 45.55 57.9397 45.55 57.9368C45.55 57.9338 45.55 57.9309 45.55 57.9279C45.55 57.925 45.55 57.922 45.55 57.919C45.55 57.916 45.55 57.9131 45.55 57.9101C45.55 57.9071 45.55 57.9041 45.55 57.9011C45.55 57.8981 45.55 57.8951 45.55 57.8921C45.55 57.8891 45.55 57.8861 45.55 57.8831C45.55 57.8801 45.55 57.877 45.55 57.874C45.55 57.871 45.55 57.868 45.55 57.8649C45.55 57.8619 45.55 57.8588 45.55 57.8558C45.55 57.8527 45.55 57.8497 45.55 57.8466C45.55 57.8436 45.55 57.8405 45.55 57.8374C45.55 57.8344 45.55 57.8313 45.55 57.8282C45.55 57.8251 45.55 57.8221 45.55 57.819C45.55 57.8159 45.55 57.8128 45.55 57.8097C45.55 57.8066 45.55 57.8035 45.55 57.8004C45.55 57.7973 45.55 57.7941 45.55 57.791C45.55 57.7879 45.55 57.7848 45.55 57.7816C45.55 57.7785 45.55 57.7754 45.55 57.7722C45.55 57.7691 45.55 57.7659 45.55 57.7628C45.55 57.7596 45.55 57.7565 45.55 57.7533C45.55 57.7502 45.55 57.747 45.55 57.7438C45.55 57.7406 45.55 57.7375 45.55 57.7343C45.55 57.7311 45.55 57.7279 45.55 57.7247C45.55 57.7215 45.55 57.7183 45.55 57.7151C45.55 57.7119 45.55 57.7087 45.55 57.7055C45.55 57.7023 45.55 57.6991 45.55 57.6958C45.55 57.6926 45.55 57.6894 45.55 57.6861C45.55 57.6829 45.55 57.6797 45.55 57.6764C45.55 57.6732 45.55 57.6699 45.55 57.6667C45.55 57.6634 45.55 57.6602 45.55 57.6569C45.55 57.6536 45.55 57.6504 45.55 57.6471C45.55 57.6438 45.55 57.6405 45.55 57.6372C45.55 57.6339 45.55 57.6307 45.55 57.6274C45.55 57.6241 45.55 57.6208 45.55 57.6175C45.55 57.6142 45.55 57.6108 45.55 57.6075C45.55 57.6042 45.55 57.6009 45.55 57.5976C45.55 57.5942 45.55 57.5909 45.55 57.5876C45.55 57.5842 45.55 57.5809 45.55 57.5775C45.55 57.5742 45.55 57.5709 45.55 57.5675C45.55 57.5641 45.55 57.5608 45.55 57.5574C45.55 57.554 45.55 57.5507 45.55 57.5473C45.55 57.5439 45.55 57.5405 45.55 57.5372C45.55 57.5338 45.55 57.5304 45.55 57.527C45.55 57.5236 45.55 57.5202 45.55 57.5168C45.55 57.5134 45.55 57.51 45.55 57.5066C45.55 57.5031 45.55 57.4997 45.55 57.4963C45.55 57.4929 45.55 57.4894 45.55 57.486C45.55 57.4826 45.55 57.4791 45.55 57.4757C45.55 57.4722 45.55 57.4688 45.55 57.4653C45.55 57.4619 45.55 57.4584 45.55 57.455C45.55 57.4515 45.55 57.448 45.55 57.4445C45.55 57.4411 45.55 57.4376 45.55 57.4341C45.55 57.4306 45.55 57.4271 45.55 57.4236C45.55 57.4201 45.55 57.4166 45.55 57.4131C45.55 57.4096 45.55 57.4061 45.55 57.4026C45.55 57.3991 45.55 57.3956 45.55 57.3921C45.55 57.3885 45.55 57.385 45.55 57.3815C45.55 57.378 45.55 57.3744 45.55 57.3709C45.55 57.3673 45.55 57.3638 45.55 57.3602C45.55 57.3567 45.55 57.3531 45.55 57.3496C45.55 57.346 45.55 57.3424 45.55 57.3389C45.55 57.3353 45.55 57.3317 45.55 57.3281C45.55 57.3246 45.55 57.321 45.55 57.3174C45.55 57.3138 45.55 57.3102 45.55 57.3066C45.55 57.303 45.55 57.2994 45.55 57.2958C45.55 57.2922 45.55 57.2886 45.55 57.285C45.55 57.2813 45.55 57.2777 45.55 57.2741C45.55 57.2705 45.55 57.2668 45.55 57.2632C45.55 57.2596 45.55 57.2559 45.55 57.2523C45.55 57.2486 45.55 57.245 45.55 57.2413C45.55 57.2377 45.55 57.234 45.55 57.2303C45.55 57.2267 45.55 57.223 45.55 57.2193C45.55 57.2156 45.55 57.212 45.55 57.2083C45.55 57.2046 45.55 57.2009 45.55 57.1972C45.55 57.1935 45.55 57.1898 45.55 57.1861C45.55 57.1824 45.55 57.1787 45.55 57.175C45.55 57.1713 45.55 57.1676 45.55 57.1639C45.55 57.1601 45.55 57.1564 45.55 57.1527C45.55 57.149 45.55 57.1452 45.55 57.1415C45.55 57.1377 45.55 57.134 45.55 57.1303C45.55 57.1265 45.55 57.1227 45.55 57.119C45.55 57.1152 45.55 57.1115 45.55 57.1077C45.55 57.1039 45.55 57.1002 45.55 57.0964C45.55 57.0926 45.55 57.0888 45.55 57.0851C45.55 57.0813 45.55 57.0775 45.55 57.0737C45.55 57.0699 45.55 57.0661 45.55 57.0623C45.55 57.0585 45.55 57.0547 45.55 57.0509C45.55 57.0471 45.55 57.0432 45.55 57.0394C45.55 57.0356 45.55 57.0318 45.55 57.0279C45.55 57.0241 45.55 57.0203 45.55 57.0164C45.55 57.0126 45.55 57.0088 45.55 57.0049C45.55 57.0011 45.55 56.9972 45.55 56.9934C45.55 56.9895 45.55 56.9856 45.55 56.9818C45.55 56.9779 45.55 56.974 45.55 56.9702C45.55 56.9663 45.55 56.9624 45.55 56.9585C45.55 56.9546 45.55 56.9508 45.55 56.9469C45.55 56.943 45.55 56.9391 45.55 56.9352C45.55 56.9313 45.55 56.9274 45.55 56.9235C45.55 56.9195 45.55 56.9156 45.55 56.9117C45.55 56.9078 45.55 56.9039 45.55 56.8999C45.55 56.896 45.55 56.8921 45.55 56.8881C45.55 56.8842 45.55 56.8803 45.55 56.8763C45.55 56.8724 45.55 56.8684 45.55 56.8645C45.55 56.8605 45.55 56.8566 45.55 56.8526C45.55 56.8486 45.55 56.8447 45.55 56.8407C45.55 56.8367 45.55 56.8328 45.55 56.8288C45.55 56.8248 45.55 56.8208 45.55 56.8168C45.55 56.8128 45.55 56.8088 45.55 56.8049C45.55 56.8009 45.55 56.7969 45.55 56.7928C45.55 56.7888 45.55 56.7848 45.55 56.7808C45.55 56.7768 45.55 56.7728 45.55 56.7688C45.55 56.7647 45.55 56.7607 45.55 56.7567C45.55 56.7527 45.55 56.7486 45.55 56.7446C45.55 56.7405 45.55 56.7365 45.55 56.7324C45.55 56.7284 45.55 56.7243 45.55 56.7203C45.55 56.7162 45.55 56.7122 45.55 56.7081C45.55 56.704 45.55 56.7 45.55 56.6959C45.55 56.6918 45.55 56.6877 45.55 56.6837C45.55 56.6796 45.55 56.6755 45.55 56.6714C45.55 56.6673 45.55 56.6632 45.55 56.6591C45.55 56.655 45.55 56.6509 45.55 56.6468C45.55 56.6427 45.55 56.6386 45.55 56.6345C45.55 56.6304 45.55 56.6262 45.55 56.6221C45.55 56.618 45.55 56.6139 45.55 56.6097C45.55 56.6056 45.55 56.6015 45.55 56.5973C45.55 56.5932 45.55 56.589 45.55 56.5849C45.55 56.5807 45.55 56.5766 45.55 56.5724C45.55 56.5683 45.55 56.5641 45.55 56.56C45.55 56.5558 45.55 56.5516 45.55 56.5475C45.55 56.5433 45.55 56.5391 45.55 56.5349C45.55 56.5307 45.55 56.5266 45.55 56.5224C45.55 56.5182 45.55 56.514 45.55 56.5098C45.55 56.5056 45.55 56.5014 45.55 56.4972C45.55 56.493 45.55 56.4888 45.55 56.4845C45.55 56.4803 45.55 56.4761 45.55 56.4719C45.55 56.4677 45.55 56.4634 45.55 56.4592C45.55 56.455 45.55 56.4508 45.55 56.4465C45.55 56.4423 45.55 56.438 45.55 56.4338C45.55 56.4295 45.55 56.4253 45.55 56.421C45.55 56.4168 45.55 56.4125 45.55 56.4083C45.55 56.404 45.55 56.3997 45.55 56.3955C45.55 56.3912 45.55 56.3869 45.55 56.3826C45.55 56.3784 45.55 56.3741 45.55 56.3698C45.55 56.3655 45.55 56.3612 45.55 56.3569C45.55 56.3526 45.55 56.3483 45.55 56.344C45.55 56.3397 45.55 56.3354 45.55 56.3311C45.55 56.3268 45.55 56.3225 45.55 56.3182C45.55 56.3139 45.55 56.3095 45.55 56.3052C45.55 56.3009 45.55 56.2966 45.55 56.2922C45.55 56.2879 45.55 56.2836 45.55 56.2792C45.55 56.2749 45.55 56.2705 45.55 56.2662C45.55 56.2618 45.55 56.2575 45.55 56.2531C45.55 56.2488 45.55 56.2444 45.55 56.2401C45.55 56.2357 45.55 56.2313 45.55 56.2269C45.55 56.2226 45.55 56.2182 45.55 56.2138C45.55 56.2094 45.55 56.2051 45.55 56.2007C45.55 56.1963 45.55 56.1919 45.55 56.1875C45.55 56.1831 45.55 56.1787 45.55 56.1743C45.55 56.1699 45.55 56.1655 45.55 56.1611C45.55 56.1567 45.55 56.1523 45.55 56.1478C45.55 56.1434 45.55 56.139 45.55 56.1346C45.55 56.1302 45.55 56.1257 45.55 56.1213C45.55 56.1169 45.55 56.1124 45.55 56.108C45.55 56.1035 45.55 56.0991 45.55 56.0947C45.55 56.0902 45.55 56.0858 45.55 56.0813C45.55 56.0768 45.55 56.0724 45.55 56.0679C45.55 56.0635 45.55 56.059 45.55 56.0545C45.55 56.0501 45.55 56.0456 45.55 56.0411C45.55 56.0366 45.55 56.0322 45.55 56.0277C45.55 56.0232 45.55 56.0187 45.55 56.0142C45.55 56.0097 45.55 56.0052 45.55 56.0007C45.55 55.9962 45.55 55.9917 45.55 55.9872C45.55 55.9827 45.55 55.9782 45.55 55.9737C45.55 55.9692 45.55 55.9646 45.55 55.9601C45.55 55.9556 45.55 55.9511 45.55 55.9465C45.55 55.942 45.55 55.9375 45.55 55.9329C45.55 55.9284 45.55 55.9239 45.55 55.9193C45.55 55.9148 45.55 55.9102 45.55 55.9057C45.55 55.9011 45.55 55.8966 45.55 55.892C45.55 55.8875 45.55 55.8829 45.55 55.8783C45.55 55.8738 45.55 55.8692 45.55 55.8646C45.55 55.8601 45.55 55.8555 45.55 55.8509C45.55 55.8463 45.55 55.8418 45.55 55.8372C45.55 55.8326 45.55 55.828 45.55 55.8234C45.55 55.8188 45.55 55.8142 45.55 55.8096C45.55 55.805 45.55 55.8004 45.55 55.7958C45.55 55.7912 45.55 55.7866 45.55 55.782C45.55 55.7773 45.55 55.7727 45.55 55.7681C45.55 55.7635 45.55 55.7589 45.55 55.7542C45.55 55.7496 45.55 55.745 45.55 55.7403C45.55 55.7357 45.55 55.7311 45.55 55.7264C45.55 55.7218 45.55 55.7171 45.55 55.7125C45.55 55.7078 45.55 55.7032 45.55 55.6985C45.55 55.6939 45.55 55.6892 45.55 55.6845C45.55 55.6799 45.55 55.6752 45.55 55.6705C45.55 55.6659 45.55 55.6612 45.55 55.6565C45.55 55.6518 45.55 55.6472 45.55 55.6425C45.55 55.6378 45.55 55.6331 45.55 55.6284C45.55 55.6237 45.55 55.619 45.55 55.6143C45.55 55.6096 45.55 55.6049 45.55 55.6002C45.55 55.5955 45.55 55.5908 45.55 55.5861C45.55 55.5814 45.55 55.5767 45.55 55.572C45.55 55.5673 45.55 55.5625 45.55 55.5578C45.55 55.5531 45.55 55.5484 45.55 55.5436C45.55 55.5389 45.55 55.5342 45.55 55.5294C45.55 55.5247 45.55 55.5199 45.55 55.5152C45.55 55.5105 45.55 55.5057 45.55 55.501C45.55 55.4962 45.55 55.4914 45.55 55.4867C45.55 55.4819 45.55 55.4772 45.55 55.4724C45.55 55.4676 45.55 55.4629 45.55 55.4581C45.55 55.4533 45.55 55.4486 45.55 55.4438C45.55 55.439 45.55 55.4342 45.55 55.4294C45.55 55.4247 45.55 55.4199 45.55 55.4151C45.55 55.4103 45.55 55.4055 45.55 55.4007C45.55 55.3959 45.55 55.3911 45.55 55.3863C45.55 55.3815 45.55 55.3767 45.55 55.3719C45.55 55.3671 45.55 55.3622 45.55 55.3574C45.55 55.3526 45.55 55.3478 45.55 55.343C45.55 55.3381 45.55 55.3333 45.55 55.3285C45.55 55.3237 45.55 55.3188 45.55 55.314C45.55 55.3092 45.55 55.3043 45.55 55.2995C45.55 55.2946 45.55 55.2898 45.55 55.2849C45.55 55.2801 45.55 55.2752 45.55 55.2704C45.55 55.2655 45.55 55.2607 45.55 55.2558C45.55 55.251 45.55 55.2461 45.55 55.2412C45.55 55.2364 45.55 55.2315 45.55 55.2266C45.55 55.2217 45.55 55.2169 45.55 55.212C45.55 55.2071 45.55 55.2022 45.55 55.1973C45.55 55.1924 45.55 55.1876 45.55 55.1827C45.55 55.1778 45.55 55.1729 45.55 55.168C45.55 55.1631 45.55 55.1582 45.55 55.1533C45.55 55.1484 45.55 55.1435 45.55 55.1385C45.55 55.1336 45.55 55.1287 45.55 55.1238C45.55 55.1189 45.55 55.114 45.55 55.109C45.55 55.1041 45.55 55.0992 45.55 55.0943C45.55 55.0893 45.55 55.0844 45.55 55.0795C45.55 55.0745 45.55 55.0696 45.55 55.0647C45.55 55.0597 45.55 55.0548 45.55 55.0498C45.55 55.0449 45.55 55.0399 45.55 55.035C45.55 55.03 45.55 55.0251 45.55 55.0201C45.55 55.0151 45.55 55.0102 45.55 55.0052C45.55 55.0003 45.55 54.9953 45.55 54.9903C45.55 54.9853 45.55 54.9804 45.55 54.9754C45.55 54.9704 45.55 54.9654 45.55 54.9604C45.55 54.9555 45.55 54.9505 45.55 54.9455C45.55 54.9405 45.55 54.9355 45.55 54.9305C45.55 54.9255 45.55 54.9205 45.55 54.9155C45.55 54.9105 45.55 54.9055 45.55 54.9005C45.55 54.8955 45.55 54.8905 45.55 54.8855C45.55 54.8805 45.55 54.8755 45.55 54.8704C45.55 54.8654 45.55 54.8604 45.55 54.8554C45.55 54.8503 45.55 54.8453 45.55 54.8403C45.55 54.8353 45.55 54.8302 45.55 54.8252C45.55 54.8202 45.55 54.8151 45.55 54.8101C45.55 54.805 45.55 54.8 45.55 54.7949C45.55 54.7899 45.55 54.7849 45.55 54.7798C45.55 54.7747 45.55 54.7697 45.55 54.7646C45.55 54.7596 45.55 54.7545 45.55 54.7495C45.55 54.7444 45.55 54.7393 45.55 54.7343C45.55 54.7292 45.55 54.7241 45.55 54.719C45.55 54.714 45.55 54.7089 45.55 54.7038C45.55 54.6987 45.55 54.6936 45.55 54.6886C45.55 54.6835 45.55 54.6784 45.55 54.6733C45.55 54.6682 45.55 54.6631 45.55 54.658C45.55 54.6529 45.55 54.6478 45.55 54.6427C45.55 54.6376 45.55 54.6325 45.55 54.6274C45.55 54.6223 45.55 54.6172 45.55 54.6121C45.55 54.6069 45.55 54.6018 45.55 54.5967C45.55 54.5916 45.55 54.5865 45.55 54.5813C45.55 54.5762 45.55 54.5711 45.55 54.566C45.55 54.5608 45.55 54.5557 45.55 54.5506C45.55 54.5454 45.55 54.5403 45.55 54.5351C45.55 54.53 45.55 54.5249 45.55 54.5197C45.55 54.5146 45.55 54.5094 45.55 54.5043C45.55 54.4991 45.55 54.494 45.55 54.4888C45.55 54.4837 45.55 54.4785 45.55 54.4733C45.55 54.4682 45.55 54.463 45.55 54.4578C45.55 54.4527 45.55 54.4475 45.55 54.4423C45.55 54.4372 45.55 54.432 45.55 54.4268C45.55 54.4216 45.55 54.4164 45.55 54.4113C45.55 54.4061 45.55 54.4009 45.55 54.3957C45.55 54.3905 45.55 54.3853 45.55 54.3801C45.55 54.3749 45.55 54.3698 45.55 54.3646C45.55 54.3594 45.55 54.3542 45.55 54.349C45.55 54.3437 45.55 54.3385 45.55 54.3333H43.55Z" fill="#E6E8EF"/>
<path d="M34 38C34 37.4477 33.5523 37 33 37C32.4477 37 32 37.4477 32 38H34ZM32 44C32 44.5523 32.4477 45 33 45C33.5523 45 34 44.5523 34 44H32ZM30 40C29.4477 40 29 40.4477 29 41C29 41.5523 29.4477 42 30 42V40ZM36 42C36.5523 42 37 41.5523 37 41C37 40.4477 36.5523 40 36 40V42ZM32 38V44H34V38H32ZM30 42H36V40H30V42Z" fill="#E6E8EF"/>
<path d="M48 38C48 38.5523 47.5523 39 47 39C46.4477 39 46 38.5523 46 38C46 37.4477 46.4477 37 47 37C47.5523 37 48 37.4477 48 38Z" fill="#E6E8EF"/>
<path d="M48 44C48 44.5523 47.5523 45 47 45C46.4477 45 46 44.5523 46 44C46 43.4477 46.4477 43 47 43C47.5523 43 48 43.4477 48 44Z" fill="#E6E8EF"/>
<path d="M45 41C45 41.5523 44.5523 42 44 42C43.4477 42 43 41.5523 43 41C43 40.4477 43.4477 40 44 40C44.5523 40 45 40.4477 45 41Z" fill="#E6E8EF"/>
<path d="M51 41C51 41.5523 50.5523 42 50 42C49.4477 42 49 41.5523 49 41C49 40.4477 49.4477 40 50 40C50.5523 40 51 40.4477 51 41Z" fill="#E6E8EF"/>
</svg>
