<svg width="32" height="32" viewBox="0 0 32 32" fill="none" xmlns="http://www.w3.org/2000/svg">
<g clip-path="url(#clip0_117_5586)">
<path fill-rule="evenodd" clip-rule="evenodd" d="M22.4578 8.72997C20.8058 7.15437 18.6011 6.29602 16.32 6.33129C12.1458 6.33129 8.60075 9.14736 7.33673 12.9394C6.66651 14.9265 6.66651 17.0783 7.33672 19.0655H7.34259C8.61248 22.8516 12.1517 25.6677 16.3259 25.6677C18.4806 25.6677 20.3304 25.1166 21.7641 24.1431V24.1392C23.4514 23.0221 24.6037 21.2643 24.9623 19.2772H16.32V13.1158H31.4117C31.5998 14.1858 31.688 15.2794 31.688 16.367C31.688 21.2335 29.9488 25.3478 26.9228 28.1345L26.9259 28.1369C24.2744 30.5826 20.6353 31.9995 16.32 31.9995C10.2704 31.9995 4.73814 28.5896 2.02199 23.1867C-0.247327 18.6657 -0.247321 13.3392 2.02201 8.8182C4.73816 3.40942 10.2704 -0.000508693 16.32 -0.000508693C20.2943 -0.0475416 24.1333 1.44575 27.0259 4.1619L22.4578 8.72997Z" fill="white"/>
</g>
<defs>
<clipPath id="clip0_117_5586">
<rect width="32" height="32" fill="white" transform="translate(0 -0.000488281)"/>
</clipPath>
</defs>
</svg>
