<svg width="32" height="32" viewBox="0 0 32 32" fill="none" xmlns="http://www.w3.org/2000/svg">
<g clip-path="url(#clip0_117_5589)">
<path d="M16 2.88076C20.275 2.88076 20.7813 2.89951 22.4625 2.97451C24.025 3.04326 24.8688 3.30576 25.4313 3.52451C26.175 3.81201 26.7125 4.16201 27.2688 4.71826C27.8313 5.28076 28.175 5.81201 28.4625 6.55576C28.6813 7.11826 28.9438 7.96826 29.0125 9.52451C29.0875 11.212 29.1063 11.7183 29.1063 15.987C29.1063 20.262 29.0875 20.7683 29.0125 22.4495C28.9438 24.012 28.6813 24.8558 28.4625 25.4183C28.175 26.162 27.825 26.6995 27.2688 27.2558C26.7063 27.8183 26.175 28.162 25.4313 28.4495C24.8688 28.6683 24.0188 28.9308 22.4625 28.9995C20.775 29.0745 20.2688 29.0933 16 29.0933C11.725 29.0933 11.2188 29.0745 9.5375 28.9995C7.975 28.9308 7.13125 28.6683 6.56875 28.4495C5.825 28.162 5.2875 27.812 4.73125 27.2558C4.16875 26.6933 3.825 26.162 3.5375 25.4183C3.31875 24.8558 3.05625 24.0058 2.9875 22.4495C2.9125 20.762 2.89375 20.2558 2.89375 15.987C2.89375 11.712 2.9125 11.2058 2.9875 9.52451C3.05625 7.96201 3.31875 7.11826 3.5375 6.55576C3.825 5.81201 4.175 5.27451 4.73125 4.71826C5.29375 4.15576 5.825 3.81201 6.56875 3.52451C7.13125 3.30576 7.98125 3.04326 9.5375 2.97451C11.2188 2.89951 11.725 2.88076 16 2.88076ZM16 -0.000488281C11.6563 -0.000488281 11.1125 0.0182617 9.40625 0.0932617C7.70625 0.168262 6.5375 0.443262 5.525 0.837012C4.46875 1.24951 3.575 1.79326 2.6875 2.68701C1.79375 3.57451 1.25 4.46826 0.8375 5.51826C0.44375 6.53701 0.16875 7.69951 0.09375 9.39951C0.01875 11.112 0 11.6558 0 15.9995C0 20.3433 0.01875 20.887 0.09375 22.5933C0.16875 24.2933 0.44375 25.462 0.8375 26.4745C1.25 27.5308 1.79375 28.4245 2.6875 29.312C3.575 30.1995 4.46875 30.7495 5.51875 31.1558C6.5375 31.5495 7.7 31.8245 9.4 31.8995C11.1063 31.9745 11.65 31.9933 15.9938 31.9933C20.3375 31.9933 20.8813 31.9745 22.5875 31.8995C24.2875 31.8245 25.4563 31.5495 26.4688 31.1558C27.5188 30.7495 28.4125 30.1995 29.3 29.312C30.1875 28.4245 30.7375 27.5308 31.1438 26.4808C31.5375 25.462 31.8125 24.2995 31.8875 22.5995C31.9625 20.8933 31.9813 20.3495 31.9813 16.0058C31.9813 11.662 31.9625 11.1183 31.8875 9.41201C31.8125 7.71201 31.5375 6.54326 31.1438 5.53076C30.75 4.46826 30.2063 3.57451 29.3125 2.68701C28.425 1.79951 27.5313 1.24951 26.4813 0.843262C25.4625 0.449512 24.3 0.174512 22.6 0.0995117C20.8875 0.0182617 20.3438 -0.000488281 16 -0.000488281Z" fill="white"/>
<path d="M16 7.78076C11.4625 7.78076 7.78125 11.462 7.78125 15.9995C7.78125 20.537 11.4625 24.2183 16 24.2183C20.5375 24.2183 24.2188 20.537 24.2188 15.9995C24.2188 11.462 20.5375 7.78076 16 7.78076ZM16 21.3308C13.0563 21.3308 10.6687 18.9433 10.6687 15.9995C10.6687 13.0558 13.0563 10.6683 16 10.6683C18.9438 10.6683 21.3312 13.0558 21.3312 15.9995C21.3312 18.9433 18.9438 21.3308 16 21.3308Z" fill="white"/>
<path d="M26.4625 7.45574C26.4625 8.51824 25.6 9.37449 24.5438 9.37449C23.4813 9.37449 22.625 8.51199 22.625 7.45574C22.625 6.39324 23.4875 5.53699 24.5438 5.53699C25.6 5.53699 26.4625 6.39949 26.4625 7.45574Z" fill="white"/>
</g>
<defs>
<clipPath id="clip0_117_5589">
<rect width="32" height="32" fill="white" transform="translate(0 -0.000488281)"/>
</clipPath>
</defs>
</svg>
