<svg width="80" height="80" viewBox="0 0 80 80" fill="none" xmlns="http://www.w3.org/2000/svg">
<mask id="path-1-inside-1_117_5436" fill="white">
<path d="M8.75003 54.6978C8.75003 54.3526 9.02985 54.0728 9.37503 54.0728H20.9456C21.2908 54.0728 21.5706 54.3526 21.5706 54.6978V74.3759C21.5706 74.7211 21.2908 75.0009 20.9456 75.0009H9.37503C9.02985 75.0009 8.75003 74.7211 8.75003 74.3759V54.6978Z"/>
<path d="M24.7757 43.4288C24.7757 43.0836 25.0555 42.8038 25.4007 42.8038H36.9713C37.3164 42.8038 37.5963 43.0836 37.5963 43.4288V74.3759C37.5963 74.7211 37.3164 75.0009 36.9713 75.0009H25.4007C25.0555 75.0009 24.7757 74.7211 24.7757 74.3759V43.4288Z"/>
<path d="M42.404 32.1599C42.404 31.8147 42.6838 31.5349 43.029 31.5349H54.5995C54.9447 31.5349 55.2245 31.8147 55.2245 32.1599V74.3759C55.2245 74.7211 54.9447 75.0009 54.5995 75.0009H43.029C42.6838 75.0009 42.404 74.7211 42.404 74.3759V32.1599Z"/>
<path d="M58.4297 22.5007C58.4297 22.1556 58.7095 21.8757 59.0547 21.8757H70.6252C70.9704 21.8757 71.2502 22.1556 71.2502 22.5007V74.3759C71.2502 74.7211 70.9704 75.0009 70.6252 75.0009H59.0547C58.7095 75.0009 58.4297 74.7211 58.4297 74.3759V22.5007Z"/>
</mask>
<path d="M9.37503 56.0728H20.9456V52.0728H9.37503V56.0728ZM19.5706 54.6978V74.3759H23.5706V54.6978H19.5706ZM20.9456 73.0009H9.37503V77.0009H20.9456V73.0009ZM10.75 74.3759V54.6978H6.75003V74.3759H10.75ZM25.4007 44.8038H36.9713V40.8038H25.4007V44.8038ZM35.5963 43.4288V74.3759H39.5963V43.4288H35.5963ZM36.9713 73.0009H25.4007V77.0009H36.9713V73.0009ZM26.7757 74.3759V43.4288H22.7757V74.3759H26.7757ZM43.029 33.5349H54.5995V29.5349H43.029V33.5349ZM53.2245 32.1599V74.3759H57.2245V32.1599H53.2245ZM54.5995 73.0009H43.029V77.0009H54.5995V73.0009ZM44.404 74.3759V32.1599H40.404V74.3759H44.404ZM59.0547 23.8757H70.6252V19.8757H59.0547V23.8757ZM69.2502 22.5007V74.3759H73.2502V22.5007H69.2502ZM70.6252 73.0009H59.0547V77.0009H70.6252V73.0009ZM60.4297 74.3759V22.5007H56.4297V74.3759H60.4297ZM59.0547 73.0009C59.8141 73.0009 60.4297 73.6165 60.4297 74.3759H56.4297C56.4297 75.8256 57.6049 77.0009 59.0547 77.0009V73.0009ZM69.2502 74.3759C69.2502 73.6165 69.8658 73.0009 70.6252 73.0009V77.0009C72.075 77.0009 73.2502 75.8256 73.2502 74.3759H69.2502ZM70.6252 23.8757C69.8658 23.8757 69.2502 23.2601 69.2502 22.5007H73.2502C73.2502 21.051 72.075 19.8757 70.6252 19.8757V23.8757ZM59.0547 19.8757C57.6049 19.8757 56.4297 21.051 56.4297 22.5007H60.4297C60.4297 23.2601 59.8141 23.8757 59.0547 23.8757V19.8757ZM43.029 73.0009C43.7884 73.0009 44.404 73.6165 44.404 74.3759H40.404C40.404 75.8256 41.5792 77.0009 43.029 77.0009V73.0009ZM53.2245 74.3759C53.2245 73.6165 53.8401 73.0009 54.5995 73.0009V77.0009C56.0493 77.0009 57.2245 75.8256 57.2245 74.3759H53.2245ZM54.5995 33.5349C53.8401 33.5349 53.2245 32.9192 53.2245 32.1599H57.2245C57.2245 30.7101 56.0493 29.5349 54.5995 29.5349V33.5349ZM43.029 29.5349C41.5792 29.5349 40.404 30.7101 40.404 32.1599H44.404C44.404 32.9192 43.7884 33.5349 43.029 33.5349V29.5349ZM25.4007 73.0009C26.1601 73.0009 26.7757 73.6165 26.7757 74.3759H22.7757C22.7757 75.8256 23.951 77.0009 25.4007 77.0009V73.0009ZM35.5963 74.3759C35.5963 73.6165 36.2119 73.0009 36.9713 73.0009V77.0009C38.421 77.0009 39.5963 75.8256 39.5963 74.3759H35.5963ZM36.9713 44.8038C36.2119 44.8038 35.5963 44.1882 35.5963 43.4288H39.5963C39.5963 41.9791 38.421 40.8038 36.9713 40.8038V44.8038ZM25.4007 40.8038C23.951 40.8038 22.7757 41.9791 22.7757 43.4288H26.7757C26.7757 44.1882 26.1601 44.8038 25.4007 44.8038V40.8038ZM9.37503 73.0009C10.1344 73.0009 10.75 73.6165 10.75 74.3759H6.75003C6.75003 75.8256 7.92528 77.0009 9.37503 77.0009V73.0009ZM19.5706 74.3759C19.5706 73.6165 20.1862 73.0009 20.9456 73.0009V77.0009C22.3953 77.0009 23.5706 75.8256 23.5706 74.3759H19.5706ZM20.9456 56.0728C20.1862 56.0728 19.5706 55.4572 19.5706 54.6978H23.5706C23.5706 53.2481 22.3953 52.0728 20.9456 52.0728V56.0728ZM9.37503 52.0728C7.92528 52.0728 6.75003 53.2481 6.75003 54.6978H10.75C10.75 55.4572 10.1344 56.0728 9.37503 56.0728V52.0728Z" fill="url(#paint0_linear_117_5436)" mask="url(#path-1-inside-1_117_5436)"/>
<path d="M9.37503 39.3758L61.8752 7.399M61.8752 7.399L61.0675 13.7944M61.8752 7.399L55.4136 5.00073" stroke="url(#paint1_linear_117_5436)" stroke-width="2" stroke-linecap="round" stroke-linejoin="round"/>
<defs>
<linearGradient id="paint0_linear_117_5436" x1="8.75003" y1="29.3465" x2="62.4832" y2="83.6723" gradientUnits="userSpaceOnUse">
<stop stop-color="#1E74EC"/>
<stop offset="1" stop-color="#002984"/>
</linearGradient>
<linearGradient id="paint1_linear_117_5436" x1="9.37503" y1="9.83473" x2="42.8985" y2="53.8343" gradientUnits="userSpaceOnUse">
<stop stop-color="#1E74EC"/>
<stop offset="1" stop-color="#002984"/>
</linearGradient>
</defs>
</svg>
