<svg width="80" height="80" viewBox="0 0 80 80" fill="none" xmlns="http://www.w3.org/2000/svg">
<path d="M43.0002 34.0005L42.3495 34.7597C42.7462 35.0998 43.3379 35.0771 43.7074 34.7076L43.0002 34.0005ZM54.0002 23.0005L54.7074 23.7076C54.8949 23.5201 55.0002 23.2657 55.0002 23.0005H54.0002ZM54.0002 18.5005L53.7062 17.5447C53.2866 17.6738 53.0002 18.0615 53.0002 18.5005H54.0002ZM60.5002 16.5005L61.2074 15.7934C60.9454 15.5315 60.5602 15.4358 60.2062 15.5447L60.5002 16.5005ZM63.0002 19.0005L63.956 19.2946C64.065 18.9405 63.9693 18.5553 63.7074 18.2934L63.0002 19.0005ZM61.0002 25.5005V26.5005C61.4392 26.5005 61.8269 26.2142 61.956 25.7946L61.0002 25.5005ZM56.0002 25.5005V24.5005C55.727 24.5005 55.4656 24.6123 55.2769 24.81L56.0002 25.5005ZM45.5002 36.5005L44.7769 35.81C44.4018 36.203 44.409 36.8235 44.7931 37.2076L45.5002 36.5005ZM48.5002 39.5005L49.2149 40.2C49.5982 39.8083 49.5949 39.1809 49.2073 38.7934L48.5002 39.5005ZM25.5002 63.0005L25.8438 63.9396C25.9838 63.8884 26.1106 63.8065 26.2149 63.7L25.5002 63.0005ZM20.5002 63.5005L20.1639 64.4422L20.5002 63.5005ZM16.0002 59.0005L15.0516 59.3167L16.0002 59.0005ZM16.0002 54.5005L15.2931 53.7934C15.1526 53.9339 15.0572 54.113 15.0189 54.308L16.0002 54.5005ZM39.5002 31.0005L40.151 30.2412C39.7542 29.9012 39.1626 29.9239 38.7931 30.2934L39.5002 31.0005ZM20.0002 27.5005L19.322 28.2353C19.5067 28.4058 19.7489 28.5005 20.0002 28.5005V27.5005ZM27.5002 27.5005V28.5005C28.0525 28.5005 28.5002 28.0528 28.5002 27.5005H27.5002ZM27.5002 20.5005H28.5002C28.5002 20.2618 28.4149 20.0309 28.2595 19.8497L27.5002 20.5005ZM21.5002 13.5005V12.5005C21.1097 12.5005 20.7549 12.7278 20.5917 13.0826C20.4285 13.4374 20.4868 13.8548 20.741 14.1513L21.5002 13.5005ZM29.0002 13.5005L29.5071 12.6385C29.3535 12.5481 29.1785 12.5005 29.0002 12.5005V13.5005ZM37.5002 21.5005L38.4238 21.117L37.5002 21.5005ZM37.5002 30.5005L36.5266 30.2724C36.4315 30.6786 36.5984 31.1011 36.9455 31.3325L37.5002 30.5005ZM39.0002 31.5005L39.7074 32.2076C39.9192 31.9958 40.0249 31.7001 39.9954 31.402C39.9659 31.1038 39.8042 30.8346 39.5549 30.6684L39.0002 31.5005ZM31.5002 39.0005L30.7931 39.7076C31.1837 40.0981 31.8168 40.0981 32.2074 39.7076L31.5002 39.0005ZM29.5002 37.0005L30.2074 36.2934C29.978 36.064 29.6516 35.9601 29.3319 36.0148L29.5002 37.0005ZM22.5002 37.0005L22.2272 37.9625L22.5002 37.0005ZM13.5002 27.5005H12.5002C12.5002 27.6568 12.5369 27.8109 12.6072 27.9505L13.5002 27.5005ZM13.5002 21.5005L14.1785 20.7657C13.8867 20.4963 13.463 20.4251 13.0992 20.5844C12.7353 20.7437 12.5002 21.1033 12.5002 21.5005H13.5002ZM40.5002 48.0005L39.7707 47.3165C39.4016 47.7103 39.4115 48.3259 39.7931 48.7076L40.5002 48.0005ZM54.0002 61.5005L53.2931 62.2076C53.4116 62.3261 53.558 62.4129 53.7188 62.4601L54.0002 61.5005ZM61.5002 61.0005L62.2147 61.7002L61.5002 61.0005ZM62.5002 54.5005L63.486 54.3321C63.4511 54.128 63.3537 53.9398 63.2074 53.7934L62.5002 54.5005ZM48.0002 40.0005L48.7074 39.2934C48.5159 39.1019 48.2549 38.9963 47.9841 39.0006C47.7133 39.005 47.4559 39.119 47.2707 39.3165L48.0002 40.0005ZM19.7931 54.7934C19.4026 55.1839 19.4026 55.8171 19.7931 56.2076C20.1837 56.5981 20.8168 56.5981 21.2074 56.2076L19.7931 54.7934ZM39.2074 38.2076C39.5979 37.8171 39.5979 37.1839 39.2074 36.7934C38.8168 36.4029 38.1837 36.4029 37.7931 36.7934L39.2074 38.2076ZM23.2931 58.2934C22.9026 58.6839 22.9026 59.3171 23.2931 59.7076C23.6837 60.0981 24.3168 60.0981 24.7074 59.7076L23.2931 58.2934ZM42.7074 41.7076C43.0979 41.3171 43.0979 40.6839 42.7074 40.2934C42.3168 39.9029 41.6837 39.9029 41.2931 40.2934L42.7074 41.7076ZM43.7074 34.7076L54.7074 23.7076L53.2931 22.2934L42.2931 33.2934L43.7074 34.7076ZM55.0002 23.0005V18.5005H53.0002V23.0005H55.0002ZM54.2943 19.4563L60.7943 17.4563L60.2062 15.5447L53.7062 17.5447L54.2943 19.4563ZM59.7931 17.2076L62.2931 19.7076L63.7074 18.2934L61.2074 15.7934L59.7931 17.2076ZM62.0445 18.7064L60.0445 25.2064L61.956 25.7946L63.956 19.2946L62.0445 18.7064ZM61.0002 24.5005H56.0002V26.5005H61.0002V24.5005ZM55.2769 24.81L44.7769 35.81L46.2236 37.191L56.7236 26.191L55.2769 24.81ZM44.7931 37.2076L47.7931 40.2076L49.2073 38.7934L46.2074 35.7934L44.7931 37.2076ZM47.7855 38.801L24.7855 62.301L26.2149 63.7L49.2149 40.2L47.7855 38.801ZM25.5002 63.0005C25.1566 62.0614 25.1567 62.0613 25.1569 62.0613C25.1569 62.0613 25.157 62.0612 25.1571 62.0612C25.1572 62.0611 25.1573 62.0611 25.1574 62.0611C25.1574 62.0611 25.1573 62.0611 25.157 62.0612C25.1564 62.0614 25.1551 62.0619 25.153 62.0627C25.1489 62.0641 25.1419 62.0667 25.1321 62.0701C25.1125 62.077 25.0819 62.0876 25.0414 62.1013C24.9602 62.1286 24.8397 62.168 24.6884 62.2137C24.3846 62.3054 23.963 62.4209 23.4909 62.5168C22.4889 62.7202 21.4774 62.7876 20.8366 62.5587L20.1639 64.4422C21.362 64.8701 22.8504 64.6876 23.8887 64.4768C24.4367 64.3655 24.9203 64.2329 25.2667 64.1283C25.4405 64.0758 25.5813 64.0299 25.6802 63.9965C25.7297 63.9798 25.7688 63.9663 25.7964 63.9565C25.8102 63.9517 25.8212 63.9478 25.8291 63.9449C25.8331 63.9435 25.8363 63.9423 25.8388 63.9414C25.84 63.941 25.8411 63.9406 25.8419 63.9403C25.8423 63.9401 25.8427 63.94 25.843 63.9399C25.8432 63.9398 25.8434 63.9398 25.8435 63.9397C25.8437 63.9397 25.8438 63.9396 25.5002 63.0005ZM20.8366 62.5587C19.764 62.1757 18.9741 61.7069 18.3703 61.11C17.7692 60.5158 17.3026 59.7453 16.9489 58.6843L15.0516 59.3167C15.4838 60.6134 16.0969 61.675 16.9643 62.5323C17.8288 63.387 18.896 63.9894 20.1639 64.4422L20.8366 62.5587ZM16.9489 58.6843C16.7382 58.0521 16.721 57.0981 16.789 56.2009C16.8215 55.7721 16.8704 55.3905 16.9112 55.1164C16.9315 54.9798 16.9497 54.871 16.9625 54.7977C16.9689 54.761 16.974 54.7333 16.9773 54.7156C16.9789 54.7067 16.9801 54.7003 16.9809 54.6965C16.9812 54.6946 16.9815 54.6933 16.9816 54.6927C16.9816 54.6924 16.9817 54.6923 16.9817 54.6924C16.9817 54.6924 16.9816 54.6924 16.9816 54.6925C16.9816 54.6926 16.9816 54.6927 16.9816 54.6927C16.9816 54.6929 16.9815 54.693 16.0002 54.5005C15.0189 54.308 15.0189 54.3081 15.0189 54.3083C15.0189 54.3084 15.0188 54.3086 15.0188 54.3087C15.0188 54.309 15.0187 54.3093 15.0186 54.3097C15.0185 54.3104 15.0183 54.3113 15.0181 54.3124C15.0177 54.3145 15.0171 54.3174 15.0165 54.3209C15.0151 54.3279 15.0133 54.3376 15.011 54.3499C15.0064 54.3744 15.0001 54.4092 14.9924 54.4533C14.977 54.5414 14.9561 54.6669 14.933 54.8219C14.887 55.1311 14.8317 55.5619 14.7947 56.0497C14.7238 56.9857 14.7065 58.2817 15.0516 59.3167L16.9489 58.6843ZM16.7074 55.2076L40.2073 31.7076L38.7931 30.2934L15.2931 53.7934L16.7074 55.2076ZM38.8494 31.7597L42.3495 34.7597L43.651 33.2412L40.151 30.2412L38.8494 31.7597ZM20.0002 28.5005H27.5002V26.5005H20.0002V28.5005ZM28.5002 27.5005V20.5005H26.5002V27.5005H28.5002ZM28.2595 19.8497L22.2595 12.8497L20.741 14.1513L26.741 21.1513L28.2595 19.8497ZM21.5002 14.5005H29.0002V12.5005H21.5002V14.5005ZM29.0002 13.5005C28.4934 14.3625 28.4933 14.3624 28.4932 14.3624C28.4932 14.3624 28.4931 14.3624 28.4931 14.3624C28.4932 14.3624 28.4933 14.3625 28.4935 14.3626C28.494 14.3629 28.4948 14.3634 28.4961 14.3641C28.4987 14.3656 28.5028 14.3681 28.5086 14.3715C28.5201 14.3784 28.5378 14.389 28.5615 14.4032C28.6089 14.4318 28.6799 14.4749 28.7717 14.5317C28.9552 14.6453 29.2213 14.8131 29.5467 15.0273C30.1984 15.4563 31.0828 16.0678 32.0151 16.7983C33.9297 18.2985 35.8612 20.1607 36.5767 21.8839L38.4238 21.117C37.4903 18.8688 35.1718 16.731 33.2487 15.224C32.2621 14.451 31.3307 13.8072 30.6463 13.3567C30.3036 13.1311 30.0216 12.9532 29.824 12.831C29.7252 12.7698 29.6474 12.7226 29.5937 12.6902C29.5668 12.6739 29.5459 12.6615 29.5313 12.6528C29.524 12.6485 29.5184 12.6451 29.5143 12.6427C29.5123 12.6415 29.5107 12.6406 29.5095 12.6399C29.5089 12.6395 29.5084 12.6392 29.508 12.639C29.5078 12.6389 29.5076 12.6387 29.5075 12.6387C29.5073 12.6386 29.5071 12.6385 29.0002 13.5005ZM36.5767 21.8839C37.1503 23.2655 37.1764 25.3028 37.0098 27.1268C36.9288 28.0137 36.807 28.8053 36.7053 29.3751C36.6546 29.6594 36.6091 29.8871 36.5767 30.0423C36.5605 30.1198 36.5475 30.1791 36.5389 30.2181C36.5345 30.2376 36.5313 30.2521 36.5292 30.2612C36.5281 30.2658 36.5274 30.269 36.5269 30.2709C36.5267 30.2719 36.5266 30.2725 36.5265 30.2727C36.5265 30.2728 36.5265 30.2729 36.5265 30.2728C36.5265 30.2728 36.5265 30.2727 36.5265 30.2727C36.5266 30.2726 36.5266 30.2724 37.5002 30.5005C38.4739 30.7285 38.4739 30.7284 38.474 30.7281C38.474 30.7281 38.4741 30.7278 38.4741 30.7276C38.4742 30.7272 38.4743 30.7267 38.4744 30.7262C38.4747 30.725 38.4751 30.7235 38.4755 30.7217C38.4763 30.718 38.4775 30.7129 38.479 30.7065C38.4819 30.6937 38.486 30.6754 38.4912 30.652C38.5016 30.6052 38.5163 30.5377 38.5344 30.4516C38.5704 30.2793 38.6197 30.0322 38.6742 29.7264C38.7832 29.1158 38.9141 28.2661 39.0015 27.3087C39.1718 25.4442 39.1979 22.9815 38.4238 21.117L36.5767 21.8839ZM36.9455 31.3325L38.4455 32.3325L39.5549 30.6684L38.0549 29.6684L36.9455 31.3325ZM38.2931 30.7934L30.7931 38.2934L32.2074 39.7076L39.7074 32.2076L38.2931 30.7934ZM32.2074 38.2934L30.2074 36.2934L28.7931 37.7076L30.7931 39.7076L32.2074 38.2934ZM29.5002 37.0005C29.3319 36.0148 29.332 36.0147 29.3321 36.0147C29.3321 36.0147 29.3322 36.0147 29.3322 36.0147C29.3322 36.0147 29.3322 36.0147 29.3321 36.0147C29.3319 36.0148 29.3315 36.0148 29.3308 36.015C29.3293 36.0152 29.3269 36.0156 29.3234 36.0162C29.3165 36.0173 29.3055 36.0191 29.2907 36.0215C29.2611 36.0263 29.216 36.0335 29.157 36.0425C29.0389 36.0604 28.8653 36.0856 28.648 36.1137C28.2127 36.1701 27.6057 36.2376 26.9209 36.2826C25.5175 36.3747 23.9132 36.3621 22.7733 36.0385L22.2272 37.9625C23.7171 38.3854 25.6128 38.3728 27.0519 38.2783C27.7883 38.2299 28.4383 38.1575 28.9046 38.0972C29.1381 38.067 29.3265 38.0397 29.4577 38.0197C29.5233 38.0098 29.5747 38.0016 29.6103 37.9958C29.6281 37.993 29.642 37.9907 29.6518 37.989C29.6567 37.9882 29.6606 37.9876 29.6634 37.9871C29.6648 37.9869 29.6659 37.9867 29.6668 37.9865C29.6672 37.9864 29.6676 37.9864 29.6679 37.9863C29.6681 37.9863 29.6682 37.9863 29.6683 37.9863C29.6685 37.9862 29.6686 37.9862 29.5002 37.0005ZM22.7733 36.0385C21.7437 35.7462 20.6978 35.082 19.6848 34.1803C18.6781 33.2844 17.7521 32.1974 16.9593 31.1306C16.1685 30.0666 15.524 29.0416 15.0771 28.2817C14.8541 27.9024 14.6813 27.5909 14.565 27.3759C14.5069 27.2684 14.463 27.1852 14.4341 27.1297C14.4197 27.102 14.409 27.0812 14.4021 27.0679C14.3987 27.0612 14.3963 27.0564 14.3948 27.0534C14.394 27.052 14.3935 27.051 14.3933 27.0505C14.3932 27.0503 14.3931 27.0501 14.3931 27.0501C14.3931 27.0501 14.3931 27.0502 14.3931 27.0502C14.3932 27.0503 14.3933 27.0505 13.5002 27.5005C12.6072 27.9505 12.6073 27.9507 12.6074 27.9509C12.6075 27.9511 12.6076 27.9513 12.6078 27.9516C12.608 27.9521 12.6083 27.9527 12.6087 27.9534C12.6094 27.9549 12.6104 27.9568 12.6117 27.9593C12.6142 27.9642 12.6176 27.971 12.6221 27.9797C12.631 27.9971 12.6438 28.022 12.6605 28.054C12.6938 28.1179 12.7425 28.2101 12.8056 28.327C12.9319 28.5606 13.1165 28.8932 13.3532 29.2955C13.8256 30.0988 14.5094 31.1871 15.354 32.3236C16.1967 33.4574 17.2134 34.6582 18.3551 35.6743C19.4905 36.6848 20.7987 37.557 22.2272 37.9625L22.7733 36.0385ZM14.5002 27.5005V21.5005H12.5002V27.5005H14.5002ZM12.822 22.2353L19.322 28.2353L20.6785 26.7657L14.1785 20.7657L12.822 22.2353ZM39.7931 48.7076L53.2931 62.2076L54.7074 60.7934L41.2074 47.2934L39.7931 48.7076ZM54.0002 61.5005C53.7188 62.4601 53.7191 62.4601 53.7193 62.4602C53.7194 62.4603 53.7197 62.4603 53.7199 62.4604C53.7204 62.4605 53.7209 62.4607 53.7215 62.4609C53.7228 62.4612 53.7244 62.4617 53.7263 62.4622C53.7301 62.4633 53.7352 62.4648 53.7416 62.4666C53.7543 62.4703 53.7722 62.4753 53.795 62.4816C53.8405 62.4942 53.9055 62.5118 53.9877 62.5331C54.1521 62.5757 54.3862 62.6331 54.6726 62.6948C55.2429 62.8177 56.0318 62.9601 56.8956 63.0333C57.7535 63.106 58.7227 63.1139 59.6405 62.9472C60.5515 62.7818 61.5023 62.4276 62.2147 61.7002L60.7858 60.3008C60.4712 60.622 59.971 60.8545 59.2832 60.9794C58.6021 61.1031 57.8248 61.1049 57.0644 61.0405C56.3099 60.9765 55.609 60.8507 55.094 60.7397C54.8377 60.6845 54.6303 60.6335 54.4888 60.5969C54.4181 60.5786 54.3641 60.564 54.3288 60.5542C54.3112 60.5493 54.2982 60.5457 54.2903 60.5434C54.2863 60.5422 54.2836 60.5415 54.2821 60.541C54.2814 60.5408 54.281 60.5407 54.2809 60.5407C54.2809 60.5407 54.2809 60.5407 54.281 60.5407C54.2811 60.5407 54.2813 60.5408 54.2813 60.5408C54.2815 60.5408 54.2817 60.5409 54.0002 61.5005ZM62.2147 61.7002C62.8329 61.069 63.1817 60.2469 63.3834 59.4588C63.5872 58.6626 63.6605 57.824 63.674 57.0806C63.6876 56.3328 63.6411 55.6514 63.5917 55.1585C63.567 54.9111 63.5412 54.7088 63.5214 54.5664C63.5115 54.4952 63.503 54.4389 63.4968 54.3992C63.4937 54.3794 63.4912 54.3637 63.4894 54.3525C63.4884 54.3468 63.4877 54.3423 63.4871 54.3389C63.4868 54.3372 63.4866 54.3358 63.4864 54.3346C63.4863 54.3341 63.4862 54.3336 63.4861 54.3331C63.4861 54.3329 63.4861 54.3327 63.486 54.3326C63.486 54.3323 63.486 54.3321 62.5002 54.5005C61.5145 54.6689 61.5145 54.6687 61.5145 54.6685C61.5145 54.6685 61.5144 54.6683 61.5144 54.6683C61.5144 54.6681 61.5144 54.6681 61.5144 54.668C61.5144 54.668 61.5144 54.6683 61.5145 54.6689C61.5147 54.6699 61.5151 54.6721 61.5156 54.6754C61.5167 54.6819 61.5184 54.6926 61.5207 54.7074C61.5253 54.737 61.5322 54.7827 61.5406 54.8426C61.5573 54.9626 61.5798 55.1391 61.6017 55.3577C61.6456 55.7969 61.6861 56.3964 61.6743 57.0443C61.6625 57.6965 61.5981 58.3683 61.4459 58.9628C61.2916 59.5654 61.0661 60.0146 60.7858 60.3008L62.2147 61.7002ZM63.2074 53.7934L48.7074 39.2934L47.2931 40.7076L61.7931 55.2076L63.2074 53.7934ZM47.2707 39.3165L39.7707 47.3165L41.2298 48.6844L48.7298 40.6844L47.2707 39.3165ZM21.2074 56.2076L39.2074 38.2076L37.7931 36.7934L19.7931 54.7934L21.2074 56.2076ZM24.7074 59.7076L42.7074 41.7076L41.2931 40.2934L23.2931 58.2934L24.7074 59.7076Z" fill="url(#paint0_linear_117_5408)"/>
<defs>
<linearGradient id="paint0_linear_117_5408" x1="13.5002" y1="20.5601" x2="63.591" y2="63.0051" gradientUnits="userSpaceOnUse">
<stop stop-color="#1E74EC"/>
<stop offset="1" stop-color="#002984"/>
</linearGradient>
</defs>
</svg>
