<svg width="80" height="80" viewBox="0 0 80 80" fill="none" xmlns="http://www.w3.org/2000/svg">
<path d="M9 50.0007C8.44772 50.0007 8 50.4484 8 51.0007C8 51.553 8.44772 52.0007 9 52.0007V50.0007ZM16 52.0007C16.5523 52.0007 17 51.553 17 51.0007C17 50.4484 16.5523 50.0007 16 50.0007V52.0007ZM32 50.0007C31.4477 50.0007 31 50.4484 31 51.0007C31 51.553 31.4477 52.0007 32 52.0007V50.0007ZM39 52.0007C39.5523 52.0007 40 51.553 40 51.0007C40 50.4484 39.5523 50.0007 39 50.0007V52.0007ZM55 50.0007C54.4477 50.0007 54 50.4484 54 51.0007C54 51.553 54.4477 52.0007 55 52.0007V50.0007ZM62 52.0007C62.5523 52.0007 63 51.553 63 51.0007C63 50.4484 62.5523 50.0007 62 50.0007V52.0007ZM32 10.0007C31.4477 10.0007 31 10.4484 31 11.0007C31 11.553 31.4477 12.0007 32 12.0007V10.0007ZM39 12.0007C39.5523 12.0007 40 11.553 40 11.0007C40 10.4484 39.5523 10.0007 39 10.0007V12.0007ZM18 68.0007C17.4477 68.0007 17 68.4484 17 69.0007C17 69.553 17.4477 70.0007 18 70.0007V68.0007ZM25 70.0007C25.5523 70.0007 26 69.553 26 69.0007C26 68.4484 25.5523 68.0007 25 68.0007V70.0007ZM41 68.0007C40.4477 68.0007 40 68.4484 40 69.0007C40 69.553 40.4477 70.0007 41 70.0007V68.0007ZM48 70.0007C48.5523 70.0007 49 69.553 49 69.0007C49 68.4484 48.5523 68.0007 48 68.0007V70.0007ZM64 68.0007C63.4477 68.0007 63 68.4484 63 69.0007C63 69.553 63.4477 70.0007 64 70.0007V68.0007ZM71 70.0007C71.5523 70.0007 72 69.553 72 69.0007C72 68.4484 71.5523 68.0007 71 68.0007V70.0007ZM41 28.0007C40.4477 28.0007 40 28.4484 40 29.0007C40 29.553 40.4477 30.0007 41 30.0007V28.0007ZM48 30.0007C48.5523 30.0007 49 29.553 49 29.0007C49 28.4484 48.5523 28.0007 48 28.0007V30.0007ZM41 34.0007C41 33.4484 40.5523 33.0007 40 33.0007C39.4477 33.0007 39 33.4484 39 34.0007H41ZM17 39.0007V38.0007C16.4477 38.0007 16 38.4484 16 39.0007H17ZM63 39.0007H64C64 38.4484 63.5523 38.0007 63 38.0007V39.0007ZM16 46.0007C16 46.553 16.4477 47.0007 17 47.0007C17.5523 47.0007 18 46.553 18 46.0007H16ZM39 46.0007C39 46.553 39.4477 47.0007 40 47.0007C40.5523 47.0007 41 46.553 41 46.0007H39ZM62 46.0007C62 46.553 62.4477 47.0007 63 47.0007C63.5523 47.0007 64 46.553 64 46.0007H62ZM10 47.0007H24V45.0007H10V47.0007ZM24 47.0007V73.0007H26V47.0007H24ZM24 73.0007H10V75.0007H24V73.0007ZM10 73.0007V47.0007H8V73.0007H10ZM10 73.0007H8C8 74.1053 8.89543 75.0007 10 75.0007V73.0007ZM24 73.0007V75.0007C25.1046 75.0007 26 74.1053 26 73.0007H24ZM24 47.0007H26C26 45.8962 25.1046 45.0007 24 45.0007V47.0007ZM10 45.0007C8.89543 45.0007 8 45.8962 8 47.0007H10V45.0007ZM33 47.0007H47V45.0007H33V47.0007ZM47 47.0007V73.0007H49V47.0007H47ZM47 73.0007H33V75.0007H47V73.0007ZM33 73.0007V47.0007H31V73.0007H33ZM33 73.0007H31C31 74.1053 31.8954 75.0007 33 75.0007V73.0007ZM47 73.0007V75.0007C48.1046 75.0007 49 74.1053 49 73.0007H47ZM47 47.0007H49C49 45.8962 48.1046 45.0007 47 45.0007V47.0007ZM33 45.0007C31.8954 45.0007 31 45.8962 31 47.0007H33V45.0007ZM56 47.0007H70V45.0007H56V47.0007ZM70 47.0007V73.0007H72V47.0007H70ZM70 73.0007H56V75.0007H70V73.0007ZM56 73.0007V47.0007H54V73.0007H56ZM56 73.0007H54C54 74.1053 54.8954 75.0007 56 75.0007V73.0007ZM70 73.0007V75.0007C71.1046 75.0007 72 74.1053 72 73.0007H70ZM70 47.0007H72C72 45.8962 71.1046 45.0007 70 45.0007V47.0007ZM56 45.0007C54.8954 45.0007 54 45.8962 54 47.0007H56V45.0007ZM33 7.00073H47V5.00073H33V7.00073ZM47 7.00073V33.0007H49V7.00073H47ZM47 33.0007H33V35.0007H47V33.0007ZM33 33.0007V7.00073H31V33.0007H33ZM33 33.0007H31C31 34.1053 31.8954 35.0007 33 35.0007V33.0007ZM47 33.0007V35.0007C48.1046 35.0007 49 34.1053 49 33.0007H47ZM47 7.00073H49C49 5.89616 48.1046 5.00073 47 5.00073V7.00073ZM33 5.00073C31.8954 5.00073 31 5.89616 31 7.00073H33V7.00073V5.00073ZM9 52.0007H16V50.0007H9V52.0007ZM32 52.0007H39V50.0007H32V52.0007ZM55 52.0007H62V50.0007H55V52.0007ZM32 12.0007H39V10.0007H32V12.0007ZM18 70.0007H25V68.0007H18V70.0007ZM41 70.0007H48V68.0007H41V70.0007ZM64 70.0007H71V68.0007H64V70.0007ZM41 30.0007H48V28.0007H41V30.0007ZM39 34.0007V39.0007H41V34.0007H39ZM17 40.0007H63V38.0007H17V40.0007ZM16 39.0007V46.0007H18V39.0007H16ZM39 39.0007V46.0007H41V39.0007H39ZM62 39.0007V46.0007H64V39.0007H62Z" fill="url(#paint0_linear_117_5443)"/>
<defs>
<linearGradient id="paint0_linear_117_5443" x1="9" y1="15.5632" x2="75.7857" y2="67.893" gradientUnits="userSpaceOnUse">
<stop stop-color="#1E74EC"/>
<stop offset="1" stop-color="#002984"/>
</linearGradient>
</defs>
</svg>
